<?xml version="1.0" standalone="no"?>
<!DOCTYPE svg PUBLIC "-//W3C//DTD SVG 20010904//EN"
 "http://www.w3.org/TR/2001/REC-SVG-20010904/DTD/svg10.dtd">
<svg version="1.0" xmlns="http://www.w3.org/2000/svg"
 width="1126.000000pt" height="1126.000000pt" viewBox="0 0 1126.000000 1126.000000"
 preserveAspectRatio="xMidYMid meet">
<metadata>
Created by potrace 1.14, written by Peter Selinger 2001-2017
</metadata>
<g transform="translate(0.000000,1126.000000) scale(0.100000,-0.100000)"
fill="#000000" stroke="none">
<path d="M6835 10789 c-4 -6 -5 -12 -2 -15 2 -3 7 2 10 11 7 17 1 20 -8 4z"/>
<path d="M7096 10792 c-3 -5 -29 -8 -59 -7 -45 1 -54 -2 -49 -15 5 -12 2 -12
-20 2 -19 13 -29 15 -34 6 -4 -7 -3 -8 4 -4 7 4 12 1 12 -10 0 -13 -3 -14 -13
-5 -8 6 -17 8 -21 4 -4 -4 -4 1 0 12 6 16 5 18 -7 8 -16 -16 -43 -17 -33 -2 3
6 -5 4 -19 -6 -24 -15 -26 -15 -36 2 -10 17 -10 17 -11 1 0 -10 -5 -18 -11
-18 -5 0 -8 4 -4 9 3 5 1 12 -4 15 -5 4 -11 -1 -13 -11 -3 -15 -5 -15 -22 3
-17 16 -19 16 -13 2 3 -10 2 -20 -3 -23 -6 -4 -10 1 -10 9 0 19 -16 21 -26 4
-5 -7 -2 -8 7 -3 12 7 12 6 0 -6 -11 -11 -14 -11 -18 -1 -4 10 -8 10 -20 1 -9
-8 -17 -9 -21 -3 -4 5 -13 10 -21 12 -12 3 -12 0 -1 -13 11 -13 10 -15 -4 -9
-9 3 -16 11 -16 17 0 6 -6 2 -14 -9 -13 -17 -15 -17 -21 -2 -4 9 -15 16 -25
15 -10 0 -16 -6 -14 -12 3 -8 -11 -10 -47 -7 -41 3 -50 1 -44 -10 6 -10 5 -11
-6 0 -7 6 -17 12 -22 12 -4 0 -5 -6 -1 -12 5 -9 2 -9 -9 1 -14 11 -17 11 -17
0 0 -9 -3 -10 -8 -4 -8 11 -77 14 -88 3 -3 -4 3 -5 15 -3 12 2 19 0 17 -4 -8
-13 -57 -6 -66 9 -8 13 -10 12 -10 -2 0 -10 -5 -18 -11 -18 -5 0 -8 4 -5 8 3
5 -1 9 -9 9 -8 0 -12 -4 -9 -9 6 -10 -26 -6 -44 6 -7 4 -12 4 -11 -1 3 -20 -2
-27 -11 -13 -9 13 -10 13 -10 0 0 -13 -2 -13 -9 -1 -8 12 -12 12 -25 2 -13
-11 -16 -11 -16 0 -1 9 -9 4 -21 -11 -18 -22 -21 -22 -17 -5 2 14 -2 19 -12
16 -8 -2 -21 -4 -28 -5 -8 -1 -18 -9 -24 -17 -8 -11 -9 -11 -4 3 3 10 1 20 -4
23 -6 4 -10 -1 -10 -9 0 -8 -5 -18 -12 -22 -7 -4 -8 -3 -4 4 4 7 1 12 -8 12
-9 0 -16 -4 -16 -10 0 -5 -4 -10 -10 -10 -5 0 -10 8 -10 18 0 10 -3 13 -8 6
-4 -6 -17 -14 -29 -18 -17 -6 -23 -3 -23 9 0 9 -5 13 -11 10 -6 -4 -8 -13 -5
-21 3 -8 0 -11 -9 -7 -8 3 -12 10 -8 17 4 7 2 7 -8 -1 -12 -10 -18 -10 -27 -1
-16 16 -15 -4 1 -22 10 -12 9 -12 -4 -2 -9 6 -20 8 -24 4 -5 -4 -5 -2 -2 4 9
15 -20 27 -29 12 -4 -7 -3 -8 4 -4 8 5 10 1 5 -10 -6 -16 -8 -15 -16 4 -9 20
-11 21 -24 4 -8 -9 -12 -12 -9 -6 3 6 -1 11 -9 11 -8 0 -12 -4 -9 -9 3 -4 1
-8 -5 -8 -5 0 -15 8 -20 18 -6 9 -11 11 -11 5 0 -7 -7 -13 -16 -13 -8 0 -12
-4 -9 -10 10 -17 -7 -11 -22 8 -8 9 -12 11 -8 4 5 -9 -1 -11 -20 -8 -20 4 -25
1 -21 -9 3 -9 0 -12 -9 -8 -8 3 -12 9 -9 14 3 5 -2 6 -10 3 -9 -3 -13 -11 -9
-18 3 -6 -3 -2 -15 8 -22 19 -23 19 -43 -2 -23 -26 -38 -30 -18 -5 12 14 12
15 0 9 -8 -5 -17 -3 -22 5 -7 11 -9 11 -9 1 0 -7 -4 -11 -9 -7 -5 3 -12 1 -16
-4 -3 -6 4 -8 15 -6 11 2 18 0 15 -5 -6 -9 -24 -8 -41 3 -6 3 -14 3 -18 0 -10
-10 -46 -14 -46 -5 0 5 -7 9 -15 9 -8 0 -12 -4 -10 -7 3 -4 -6 -7 -20 -7 -14
0 -22 3 -20 7 3 5 -4 6 -16 3 -16 -4 -17 -8 -7 -14 7 -5 8 -9 2 -9 -5 0 -15 5
-22 12 -9 9 -12 9 -12 -1 0 -8 -6 -11 -17 -6 -35 13 -52 14 -47 1 3 -7 -2 -13
-10 -13 -8 0 -12 5 -9 10 4 6 0 8 -9 4 -9 -3 -21 0 -27 6 -9 9 -11 8 -6 -4 4
-10 0 -16 -10 -16 -8 0 -15 4 -15 8 0 10 -30 5 -38 -7 -10 -13 -78 -9 -74 5 3
16 -3 14 -19 -6 -12 -14 -12 -16 0 -8 9 5 12 4 7 -3 -4 -6 -13 -9 -21 -6 -8 4
-13 9 -11 13 7 11 -42 5 -57 -7 -8 -7 -17 -9 -20 -5 -4 3 -14 0 -22 -7 -9 -7
-15 -9 -14 -4 4 21 -2 26 -18 13 -9 -8 -14 -9 -10 -2 8 12 -10 12 -30 0 -8 -5
-13 -3 -13 5 0 9 -3 9 -8 2 -11 -17 -35 -22 -56 -11 -16 8 -18 6 -13 -7 4 -9
2 -16 -3 -16 -6 0 -10 10 -11 23 l0 22 -11 -22 c-13 -27 -28 -30 -28 -6 0 15
-2 14 -16 -3 -11 -13 -17 -15 -20 -6 -3 6 -10 12 -15 12 -6 0 -8 -4 -5 -9 4
-5 -4 -7 -16 -3 -16 4 -19 2 -13 -9 5 -8 -2 -5 -15 6 -13 11 -20 14 -15 6 6
-11 4 -13 -9 -8 -13 5 -17 3 -13 -6 3 -8 -1 -14 -9 -14 -7 0 -11 4 -8 8 2 4 0
10 -6 14 -5 3 -10 2 -10 -3 0 -6 -7 -13 -16 -16 -14 -5 -15 -4 -4 9 16 20 6
19 -14 -1 -9 -8 -16 -11 -16 -6 0 15 -25 9 -45 -11 -22 -22 -33 -14 -14 10 13
17 13 17 -7 0 -11 -9 -25 -14 -29 -10 -5 5 -4 1 3 -8 10 -14 10 -18 -3 -23 -9
-3 -13 -2 -10 4 3 6 1 10 -4 10 -6 0 -11 -6 -11 -14 0 -8 -5 -18 -11 -22 -8
-4 -9 1 -4 17 l6 24 -21 -25 c-12 -14 -19 -19 -15 -12 4 8 -1 12 -14 12 -12 0
-21 -5 -21 -11 0 -5 5 -7 12 -3 7 4 8 3 4 -4 -4 -6 -13 -9 -21 -5 -9 3 -21 0
-29 -6 -10 -8 -16 -8 -25 2 -6 8 -7 18 -3 23 4 4 0 3 -9 -4 -9 -6 -20 -8 -24
-4 -5 4 -5 1 -1 -6 4 -7 13 -9 19 -6 7 4 9 3 4 -1 -4 -5 -17 -10 -29 -12 -12
-2 -28 -9 -37 -16 -12 -10 -13 -9 -7 2 6 9 4 12 -5 9 -8 -3 -14 -11 -14 -19 0
-19 -27 -18 -42 1 -10 13 -12 12 -8 -7 2 -13 -1 -23 -6 -23 -6 0 -7 -5 -3 -12
4 -7 3 -8 -5 -4 -6 4 -9 12 -6 17 3 5 -1 6 -9 3 -8 -3 -12 -12 -9 -19 3 -10
-2 -13 -23 -9 -27 5 -27 5 -8 -13 11 -10 14 -14 6 -9 -10 8 -13 5 -10 -10 2
-13 -2 -19 -14 -18 -12 1 -18 -5 -18 -19 0 -11 -3 -17 -7 -14 -3 4 -12 -1 -20
-11 -8 -9 -12 -11 -8 -4 3 6 1 12 -4 12 -6 0 -11 -8 -11 -17 0 -10 -4 -14 -8
-8 -13 19 -35 17 -28 -2 6 -17 5 -17 -8 0 -14 18 -32 24 -21 8 3 -5 1 -12 -5
-16 -5 -3 -10 -1 -10 5 0 6 -5 8 -10 5 -6 -4 -8 -11 -5 -16 9 -13 -9 -11 -24
4 -11 10 -13 10 -7 0 4 -7 2 -13 -4 -13 -6 0 -9 -4 -5 -9 3 -5 0 -13 -6 -17
-8 -5 -9 -3 -4 5 5 9 2 12 -11 9 -11 -2 -18 -11 -18 -21 1 -9 -2 -17 -7 -17
-5 0 -9 5 -9 10 0 6 -5 10 -11 10 -5 0 -7 -4 -4 -10 3 -5 1 -10 -4 -10 -6 0
-11 -7 -11 -16 0 -14 -3 -14 -15 -4 -13 11 -14 10 -9 -5 5 -13 4 -16 -4 -11
-7 4 -12 1 -12 -9 0 -9 -5 -13 -11 -9 -8 4 -8 0 0 -15 9 -16 9 -20 -1 -16 -18
7 -41 -44 -28 -60 7 -9 6 -16 -5 -25 -8 -7 -12 -17 -8 -24 3 -6 3 -8 -2 -4 -4
4 -16 -3 -27 -15 l-19 -22 11 23 c10 21 10 22 -9 10 -11 -6 -17 -16 -15 -20 3
-4 0 -8 -5 -8 -6 0 -11 4 -11 10 0 5 -7 7 -15 4 -8 -4 -12 -11 -8 -18 4 -6 -2
-4 -12 4 -10 8 -16 10 -13 5 4 -6 3 -17 -3 -25 -5 -8 -9 -10 -9 -4 0 6 -7 11
-15 11 -10 0 -12 -4 -5 -12 8 -9 3 -12 -15 -9 -22 2 -24 0 -14 -12 11 -14 10
-15 -13 -18 -7 0 -13 -9 -13 -18 0 -9 -4 -20 -9 -25 -5 -4 -6 -3 -3 3 4 7 1
14 -7 17 -8 3 -13 -1 -12 -11 0 -9 -4 -16 -11 -15 -7 2 -10 -4 -7 -12 8 -19
-15 -48 -32 -41 -9 3 -11 0 -7 -11 5 -12 3 -14 -8 -8 -11 7 -11 5 1 -10 8 -10
11 -16 5 -13 -5 3 -19 -3 -30 -14 -19 -19 -19 -19 0 -12 18 7 17 6 -3 -16 -12
-13 -22 -27 -22 -32 0 -4 -5 -8 -12 -8 -6 0 -3 10 8 23 l19 22 -23 -19 c-12
-11 -21 -25 -19 -30 3 -6 -6 -11 -19 -11 -13 0 -24 5 -24 10 0 6 -5 2 -11 -8
-10 -18 -12 -18 -30 -1 -16 15 -19 15 -14 2 4 -11 -1 -17 -20 -22 -14 -4 -30
-4 -34 -2 -5 3 -7 -5 -6 -18 2 -13 -2 -23 -9 -23 -31 1 -47 -4 -41 -13 3 -5
-3 -10 -13 -10 -11 0 -23 -7 -26 -16 -3 -8 -10 -13 -15 -10 -5 4 -12 1 -14 -4
-3 -6 -4 -5 -3 2 2 7 9 12 15 11 6 -2 11 2 11 7 0 16 -15 12 -42 -13 -14 -13
-31 -21 -38 -19 -7 3 -10 0 -6 -6 3 -5 -1 -12 -9 -16 -8 -3 -17 -1 -21 5 -4 7
-10 6 -18 0 -7 -6 -16 -8 -19 -5 -4 4 -4 -3 -2 -15 2 -12 0 -19 -6 -16 -5 4
-9 1 -9 -4 0 -6 -4 -11 -10 -11 -5 0 -7 8 -4 18 2 9 -1 7 -7 -5 -7 -13 -19
-23 -26 -23 -8 0 -17 -9 -20 -20 -3 -11 -10 -20 -15 -20 -5 0 -6 5 -2 12 4 7
3 8 -4 4 -7 -4 -12 -14 -12 -22 0 -8 -4 -14 -10 -14 -5 0 -9 -6 -7 -12 1 -7
-4 -12 -10 -11 -7 2 -13 -2 -13 -8 0 -5 -4 -7 -10 -4 -5 3 -10 1 -10 -5 0 -7
-6 -10 -14 -7 -9 4 -12 -2 -10 -19 2 -22 -6 -29 -29 -25 -5 1 -6 -3 -3 -8 8
-13 -4 -42 -15 -35 -5 3 -9 2 -8 -3 3 -20 -2 -34 -11 -28 -5 3 -10 -1 -10 -10
0 -10 5 -13 12 -9 7 4 8 3 4 -5 -4 -6 -12 -9 -17 -6 -5 4 -9 -2 -9 -13 0 -10
-10 -24 -22 -31 -13 -6 -16 -10 -7 -7 9 2 16 -2 16 -10 0 -7 -5 -10 -10 -7 -6
4 -8 -1 -4 -11 5 -13 1 -19 -13 -23 -11 -3 -20 -10 -20 -15 0 -5 4 -7 9 -3 5
3 13 0 17 -6 4 -8 3 -9 -4 -5 -7 4 -12 2 -12 -4 0 -6 -6 -8 -12 -4 -7 4 -10 3
-5 -1 4 -5 0 -20 -10 -34 l-16 -26 22 20 23 20 -13 -27 c-6 -15 -16 -25 -22
-21 -5 3 -7 0 -5 -8 3 -8 12 -13 19 -11 8 2 1 -11 -16 -29 -16 -18 -22 -27
-12 -20 10 8 17 9 17 3 0 -6 -5 -14 -10 -17 -6 -3 -10 -16 -10 -28 0 -27 -36
-61 -53 -51 -7 4 -4 -2 6 -13 17 -19 16 -20 -13 -18 -16 1 -30 -2 -30 -8 0 -5
-7 -6 -16 -3 -14 5 -15 4 -5 -8 9 -11 8 -15 -5 -20 -9 -3 -20 -4 -25 0 -5 3
-9 1 -9 -3 0 -5 -14 -17 -31 -27 -20 -12 -28 -23 -25 -33 4 -11 2 -13 -9 -9
-8 3 -14 2 -14 -2 1 -4 1 -14 0 -22 -1 -13 -2 -13 -12 0 -9 12 -10 11 -6 -6 3
-13 -1 -21 -9 -21 -7 0 -11 5 -8 11 3 6 -4 0 -15 -14 -11 -14 -19 -31 -16 -38
3 -8 -2 -12 -13 -10 -10 2 -16 -2 -14 -11 2 -9 -3 -11 -15 -7 -14 6 -15 5 -6
-5 10 -10 8 -15 -10 -24 -12 -6 -21 -17 -20 -23 2 -7 -2 -12 -8 -12 -6 0 -9
-9 -6 -20 3 -11 0 -18 -7 -17 -6 1 -10 -4 -9 -10 2 -7 -1 -13 -6 -13 -5 0 -12
-11 -15 -25 -4 -14 -12 -25 -18 -25 -9 0 -9 3 0 12 7 7 12 17 12 22 -1 16 -24
-26 -27 -49 -2 -11 -8 -22 -14 -23 -6 -3 -5 -10 3 -20 11 -13 10 -15 -4 -9
-10 3 -20 2 -23 -3 -4 -6 -1 -10 6 -10 7 0 4 -7 -7 -15 -18 -15 -18 -15 0 -8
13 4 17 3 12 -5 -4 -7 -14 -12 -23 -12 -13 0 -13 -3 -3 -15 10 -12 8 -16 -11
-24 -13 -5 -19 -10 -13 -10 12 -1 12 -37 -1 -48 -4 -5 -5 -3 -1 4 3 6 2 14 -3
17 -5 4 -8 -5 -6 -19 1 -14 -3 -25 -9 -25 -6 0 -4 -5 4 -10 13 -8 12 -10 -2
-10 -10 0 -18 -4 -18 -10 0 -5 8 -7 17 -4 10 3 7 -2 -7 -10 -15 -9 -19 -15
-10 -16 9 0 7 -5 -9 -16 -16 -12 -20 -19 -12 -27 13 -13 15 -40 2 -33 -10 7
-9 -13 2 -31 4 -6 3 -14 -3 -18 -5 -3 -10 -11 -10 -16 0 -6 6 -7 13 -3 8 6 8
3 -1 -9 -8 -9 -11 -21 -8 -26 4 -5 1 -13 -5 -17 -8 -4 -9 -3 -5 4 4 7 3 12 -3
12 -5 0 -9 -9 -8 -19 0 -11 6 -17 12 -14 5 4 2 -2 -7 -13 -13 -15 -15 -23 -6
-32 9 -9 7 -13 -6 -18 -15 -6 -16 -7 0 -19 13 -9 14 -14 5 -19 -9 -6 -8 -13 6
-29 10 -11 12 -17 6 -13 -7 4 -13 2 -13 -3 0 -6 -8 -11 -17 -12 -15 0 -15 -2
2 -9 11 -5 16 -9 10 -9 -5 -1 -3 -6 5 -12 12 -9 10 -10 -8 -6 -18 4 -21 3 -13
-7 6 -7 8 -16 4 -19 -3 -4 -1 -7 5 -7 7 0 12 5 12 12 0 6 3 8 7 4 5 -4 -1 -14
-11 -22 -12 -8 -15 -14 -7 -14 11 0 11 -3 1 -15 -10 -12 -10 -15 1 -15 11 0
11 -2 -1 -10 -13 -8 -12 -11 5 -25 19 -14 19 -15 1 -8 -13 4 -17 3 -12 -5 3
-6 -1 -15 -10 -20 -14 -8 -14 -10 -1 -15 18 -7 12 -47 -7 -47 -6 -1 0 -7 14
-15 14 -8 20 -14 13 -15 -7 0 -10 -16 -9 -44 1 -25 -2 -42 -6 -40 -5 3 -5 10
-2 16 4 7 2 8 -4 4 -8 -5 -9 -13 -2 -25 6 -12 5 -22 -3 -31 -9 -10 -9 -11 1
-6 16 9 16 -6 0 -23 -11 -11 -10 -13 4 -8 10 3 20 1 24 -5 4 -6 3 -8 -3 -5
-16 10 -24 -18 -10 -33 9 -10 9 -11 0 -6 -16 9 -16 5 -3 -28 6 -17 6 -27 -2
-32 -6 -4 -8 -3 -5 2 3 6 1 16 -4 24 -7 12 -8 11 -6 -5 1 -11 5 -24 8 -30 13
-22 18 -46 10 -41 -5 3 -11 -4 -14 -15 -4 -16 -2 -19 11 -14 14 5 14 4 -1 -13
-13 -15 -14 -21 -4 -32 9 -10 9 -11 0 -6 -7 4 -13 3 -13 -3 0 -5 6 -11 13 -14
9 -3 9 -7 -1 -19 -10 -13 -10 -17 0 -21 7 -3 4 -6 -7 -6 -16 -1 -17 -3 -5 -10
8 -6 19 -7 25 -3 6 3 5 0 -1 -9 -6 -8 -10 -30 -9 -49 3 -41 -3 -62 -16 -54 -5
3 -6 -2 -3 -10 3 -9 11 -13 18 -10 6 3 3 -1 -7 -9 -14 -11 -15 -16 -5 -20 8
-3 5 -6 -7 -6 -17 -1 -17 -3 -5 -11 8 -5 12 -10 8 -10 -4 0 -3 -14 2 -30 5
-19 5 -28 -1 -25 -5 4 -9 1 -9 -4 0 -6 3 -11 8 -11 4 0 7 -11 7 -24 0 -13 -3
-22 -7 -19 -5 2 -8 0 -8 -6 0 -5 6 -12 13 -14 6 -3 3 -6 -8 -6 -15 -1 -16 -4
-7 -10 7 -4 14 -23 14 -42 0 -19 6 -41 12 -49 6 -8 0 -6 -13 5 l-23 20 13 -27
c10 -22 9 -31 -2 -45 -9 -11 -10 -14 -1 -9 7 4 12 1 12 -9 0 -9 -4 -14 -8 -11
-5 3 -9 -1 -9 -9 0 -8 4 -12 8 -10 3 3 9 -4 12 -15 3 -11 1 -18 -4 -14 -5 3
-9 1 -9 -5 0 -5 5 -13 10 -16 6 -3 10 -12 9 -18 0 -9 -2 -9 -6 1 -2 6 -9 12
-14 12 -14 0 -6 -24 11 -32 12 -5 12 -7 -2 -7 -10 -1 -18 -5 -18 -10 0 -5 8
-12 18 -14 16 -4 16 -5 -1 -6 -10 0 -15 -6 -12 -11 4 -6 11 -7 17 -4 7 4 8 2
4 -4 -4 -6 -14 -8 -24 -5 -14 5 -13 2 3 -11 11 -10 15 -15 9 -12 -6 3 -11 -1
-11 -9 0 -8 4 -12 8 -10 4 3 9 -2 12 -10 4 -9 1 -12 -7 -9 -8 3 -17 0 -22 -7
-4 -7 -3 -10 2 -7 5 3 15 0 22 -8 7 -8 9 -14 4 -14 -5 0 -8 -16 -7 -35 2 -19
-1 -33 -5 -30 -14 9 -19 -24 -6 -37 11 -11 11 -16 0 -26 -13 -12 -8 -46 5 -37
4 2 7 -10 6 -27 -1 -18 -7 -34 -13 -36 -7 -2 -12 -8 -12 -13 0 -4 8 -6 18 -2
14 5 15 3 5 -8 -17 -17 -17 -32 0 -24 6 4 4 0 -5 -8 -10 -8 -15 -17 -11 -20
10 -10 10 -51 0 -65 -7 -8 -4 -18 7 -30 9 -10 16 -23 16 -28 0 -5 -5 -2 -10 6
-9 14 -14 -15 -13 -83 0 -12 -6 -16 -16 -12 -11 3 -10 0 3 -10 11 -8 16 -15
10 -15 -5 0 -9 -11 -9 -25 0 -14 3 -25 7 -25 8 0 5 -21 -5 -37 -5 -8 -3 -13 3
-13 8 0 7 -6 -1 -21 -8 -16 -8 -20 1 -14 9 6 9 2 1 -14 -9 -16 -9 -21 1 -21 9
0 9 -3 -2 -10 -12 -8 -12 -10 -1 -10 11 0 11 -3 1 -15 -9 -11 -9 -15 -1 -15 7
0 9 -5 5 -12 -12 -19 -12 -48 -1 -48 5 0 4 -7 -3 -15 -10 -12 -10 -15 1 -15
12 0 12 -2 0 -9 -9 -6 -10 -10 -2 -16 9 -5 9 -10 0 -21 -9 -11 -9 -14 1 -14 9
0 10 -3 1 -13 -6 -8 -8 -17 -5 -20 4 -3 2 -19 -4 -36 -8 -23 -8 -29 2 -25 14
5 15 -31 1 -43 -4 -5 -5 -3 -1 4 3 6 1 15 -6 19 -7 4 -10 4 -6 -1 4 -4 2 -15
-5 -23 -6 -9 -7 -13 -2 -10 6 4 17 3 25 -3 12 -7 11 -9 -5 -9 l-20 -1 20 -16
c16 -12 16 -14 3 -10 -10 3 -20 1 -24 -5 -4 -7 -3 -8 4 -4 16 9 16 -19 0 -47
-11 -21 -10 -21 7 -7 14 11 17 11 11 1 -5 -8 -3 -17 5 -22 10 -6 8 -9 -9 -9
-21 0 -22 -1 -8 -16 14 -13 14 -20 2 -47 -15 -38 -11 -58 12 -50 11 3 13 2 6
-4 -6 -4 -11 -22 -10 -40 1 -26 -1 -29 -14 -20 -10 8 -9 3 4 -17 18 -28 18
-29 0 -22 -15 6 -17 5 -6 -5 14 -15 16 -33 2 -24 -6 3 -7 -1 -4 -9 3 -9 9 -14
13 -12 3 2 6 -6 6 -19 0 -13 -3 -21 -7 -18 -13 7 -9 -12 5 -26 10 -11 9 -13
-4 -9 -11 4 -15 -1 -15 -17 0 -13 4 -21 8 -19 5 3 5 10 2 16 -4 6 -2 8 4 5 12
-8 4 -49 -12 -59 -7 -5 -6 -8 3 -8 10 0 11 -3 2 -14 -8 -10 -9 -16 -1 -21 5
-3 10 -11 10 -17 0 -7 -4 -7 -13 1 -10 8 -14 7 -14 -4 0 -7 5 -13 10 -12 15 3
16 -51 1 -57 -8 -3 -11 -12 -8 -21 5 -13 9 -13 23 -3 13 10 13 9 -1 -8 -19
-22 -25 -49 -8 -39 5 3 3 -7 -5 -21 -8 -15 -11 -32 -7 -38 3 -6 5 -22 3 -35
-1 -13 3 -28 11 -32 10 -7 9 -9 -5 -9 -13 0 -16 -4 -10 -18 12 -26 9 -58 -7
-78 -14 -17 -13 -18 2 -6 14 11 16 9 15 -20 -1 -18 -6 -36 -12 -40 -6 -5 -4
-8 5 -9 10 0 8 -3 -5 -9 -15 -6 -16 -9 -4 -9 9 -1 16 -8 16 -16 0 -8 -4 -12
-8 -10 -4 3 -10 -2 -13 -11 -9 -24 -7 -31 4 -14 8 12 10 9 10 -13 0 -16 -4
-26 -9 -23 -5 4 -4 -5 2 -18 7 -13 16 -22 21 -19 5 4 6 1 2 -6 -5 -7 -14 -10
-20 -8 -7 3 -13 -1 -13 -9 0 -9 6 -13 16 -9 11 4 10 0 -5 -16 -10 -12 -14 -19
-8 -16 7 4 15 0 18 -9 8 -21 8 -24 -5 -24 -5 0 -7 5 -3 12 4 7 3 8 -5 4 -12
-8 -3 -27 24 -49 6 -5 0 -6 -13 -4 -23 6 -24 5 -5 -15 14 -17 15 -20 3 -16
-11 4 -16 0 -16 -13 0 -12 4 -15 11 -9 8 7 12 5 12 -5 0 -8 -5 -15 -11 -15 -6
0 -4 -4 4 -10 12 -8 12 -10 -3 -16 -17 -6 -17 -7 0 -19 10 -7 22 -11 28 -7 5
3 1 -4 -9 -16 -14 -17 -16 -22 -5 -22 11 0 11 -2 -1 -10 -8 -5 -10 -10 -3 -10
6 0 10 -8 8 -17 -1 -10 2 -27 8 -38 14 -26 15 -45 3 -70 -8 -18 -8 -19 8 -6
14 12 16 12 10 -3 -3 -9 -11 -16 -18 -17 -6 -1 0 -5 14 -9 18 -6 20 -8 7 -9
-17 -1 -17 -2 -3 -17 18 -18 21 -34 5 -34 -5 0 -8 4 -4 9 3 5 1 12 -4 16 -12
7 -7 -26 8 -53 6 -12 7 -23 1 -30 -7 -9 -7 -9 2 -2 19 15 32 12 18 -5 -10 -12
-10 -15 1 -15 11 0 11 -3 -1 -11 -12 -9 -11 -10 7 -6 19 4 20 2 11 -13 -9 -14
-7 -22 10 -40 11 -12 18 -28 16 -35 -3 -7 2 -20 11 -29 9 -9 12 -16 6 -16 -5
0 -9 -9 -8 -19 0 -11 5 -17 9 -15 5 3 6 10 3 15 -4 5 -1 9 5 9 7 0 9 -8 5 -21
-5 -15 -4 -19 5 -14 9 6 9 1 -1 -16 -11 -21 -10 -22 3 -12 19 17 31 4 15 -15
-8 -11 -8 -14 0 -9 11 7 30 -28 25 -47 -2 -5 5 -6 14 -2 13 5 14 4 6 -7 -13
-16 2 -37 28 -37 13 0 13 -1 0 -10 -11 -7 -11 -10 -2 -10 7 0 10 -5 7 -10 -3
-6 -2 -10 4 -10 5 0 13 -9 16 -20 5 -17 10 -18 27 -9 13 7 18 7 14 1 -3 -6 -2
-13 3 -17 6 -3 7 -13 4 -21 -5 -14 -3 -15 16 -4 21 11 22 10 11 -9 -6 -12 -7
-20 -2 -19 5 2 18 -6 28 -17 11 -12 15 -14 9 -6 -7 11 -7 13 3 7 7 -4 19 -22
27 -39 9 -18 13 -24 11 -15 -4 12 0 15 9 12 8 -3 14 -9 13 -12 -2 -19 3 -32
13 -32 5 0 7 6 3 13 -5 8 -2 8 9 -2 9 -7 17 -19 17 -25 0 -6 -5 -4 -11 4 -9
13 -10 13 -6 0 2 -10 13 -14 32 -12 26 4 28 2 16 -12 -8 -9 -11 -19 -7 -23 3
-3 6 -1 6 5 0 9 6 9 25 0 14 -6 25 -19 25 -30 0 -10 4 -18 9 -18 5 0 11 -11
13 -24 4 -19 1 -23 -11 -19 -9 3 -6 -2 7 -12 17 -13 20 -20 12 -30 -8 -10 -7
-14 2 -18 10 -4 10 -6 0 -6 -10 -1 -10 -5 2 -17 12 -12 13 -20 5 -35 -5 -11
-8 -27 -5 -37 3 -9 7 -21 8 -27 1 -5 8 -16 15 -23 7 -8 10 -18 7 -23 -3 -6 0
-24 6 -40 10 -23 15 -27 26 -18 19 16 18 4 -2 -15 -14 -15 -14 -16 4 -16 11 0
23 -7 26 -16 5 -14 4 -15 -9 -4 -13 11 -14 10 -9 -4 3 -9 12 -16 20 -16 8 0
14 -5 14 -11 0 -5 -6 -7 -12 -3 -8 4 -10 3 -5 -2 5 -5 14 -9 20 -9 7 0 11 -9
9 -19 -3 -14 1 -17 14 -12 13 5 14 3 6 -6 -7 -9 -6 -17 4 -26 10 -10 14 -10
14 -1 0 7 3 9 6 6 4 -4 1 -15 -7 -24 -7 -10 -10 -15 -5 -11 10 8 36 -15 36
-31 0 -6 10 -11 23 -12 12 0 16 -3 10 -6 -7 -2 -13 -9 -13 -14 0 -6 5 -7 11
-4 12 8 49 -22 49 -39 0 -6 10 -16 22 -21 13 -6 22 -17 20 -24 -2 -9 4 -12 18
-8 18 5 19 3 9 -9 -7 -8 -8 -14 -3 -13 26 5 43 -2 38 -15 -4 -11 0 -13 15 -9
12 3 21 1 21 -6 0 -6 6 -11 14 -11 8 0 17 -6 19 -12 4 -10 8 -9 16 2 9 13 11
13 11 -2 0 -9 -6 -18 -12 -21 -7 -3 1 -5 17 -5 48 1 57 -1 50 -12 -8 -14 8
-13 22 1 9 9 10 7 6 -10 -3 -13 -1 -21 6 -21 7 0 9 5 5 13 -6 8 -3 8 9 -2 9
-7 23 -11 32 -8 8 4 17 2 20 -4 4 -5 11 -6 17 -3 6 4 8 3 5 -2 -3 -6 -2 -16 3
-24 8 -12 13 -13 30 -2 11 6 23 12 27 12 5 0 1 -5 -7 -10 -13 -8 -13 -11 -1
-22 10 -10 12 -10 7 0 -4 7 -1 12 8 12 9 0 16 -5 16 -11 0 -8 6 -7 17 2 15 12
16 12 10 -5 -6 -14 -4 -17 8 -12 9 3 13 2 10 -4 -3 -6 -1 -10 6 -10 7 0 9 -3
5 -7 -3 -4 4 -13 16 -20 22 -13 22 -13 -7 -8 -28 5 -28 5 -6 -5 14 -6 21 -16
18 -25 -4 -10 -1 -12 10 -8 12 5 15 2 10 -10 -3 -9 1 -21 11 -29 16 -12 16
-11 2 7 -11 15 -7 14 13 -4 26 -24 36 -38 18 -27 -5 3 -12 -1 -15 -10 -4 -12
-2 -15 9 -11 8 4 17 1 21 -5 4 -7 3 -8 -4 -4 -7 4 -12 2 -12 -3 0 -6 6 -11 14
-11 17 0 30 -35 20 -51 -4 -8 -3 -9 4 -5 15 9 56 -29 48 -43 -4 -5 -1 -13 5
-17 8 -4 9 -3 5 4 -4 7 -3 12 3 12 5 0 13 -9 16 -20 3 -11 15 -20 26 -20 10 0
19 -4 19 -9 0 -5 7 -12 16 -15 13 -5 14 -3 6 7 -8 10 -6 13 8 13 10 0 17 -3
14 -7 -2 -4 3 -9 10 -12 8 -3 17 -1 20 6 4 7 4 1 2 -13 -5 -24 -5 -25 11 -5
11 14 14 15 10 4 -3 -9 0 -22 6 -29 9 -10 9 -11 0 -6 -7 4 -13 2 -13 -3 0 -6
6 -11 13 -11 7 0 8 -3 2 -8 -14 -10 -17 -52 -4 -52 5 0 7 -5 4 -10 -3 -5 0
-10 8 -10 11 0 13 -7 9 -22 -4 -17 -2 -20 12 -15 11 4 15 3 10 -4 -3 -6 3 -17
15 -25 12 -9 18 -20 14 -27 -4 -7 1 -6 11 2 9 8 16 10 15 5 -4 -22 2 -35 13
-28 8 5 9 2 5 -9 -4 -11 -1 -17 8 -17 9 0 15 -10 16 -22 0 -13 3 -17 6 -10 2
6 9 12 14 12 4 0 6 -7 3 -15 -5 -11 -2 -13 12 -8 12 4 15 3 10 -5 -4 -7 -2
-12 4 -12 6 0 8 -5 4 -13 -5 -7 0 -6 11 3 11 9 16 10 11 3 -5 -9 0 -13 13 -13
12 0 21 -5 21 -10 0 -7 6 -7 19 0 14 7 22 7 27 -1 3 -6 14 -9 24 -6 19 5 40
-22 40 -53 0 -14 4 -19 13 -14 8 6 8 3 -1 -9 -12 -14 -12 -19 1 -31 8 -8 18
-12 22 -8 4 4 4 -4 1 -18 -6 -19 -5 -21 3 -10 10 14 15 7 12 -13 -1 -5 3 -6 8
-3 5 4 12 2 16 -4 4 -6 11 -8 16 -5 8 6 13 -9 10 -29 -1 -4 12 -6 28 -4 16 2
30 2 29 -1 -2 -25 4 -32 25 -26 17 5 19 4 7 -4 -11 -8 -12 -11 -2 -11 7 0 10
-5 6 -11 -5 -8 -1 -8 14 0 26 14 32 14 32 0 0 -5 -5 -7 -10 -4 -5 3 -10 1 -10
-4 0 -15 13 -14 29 2 10 10 11 8 5 -7 -6 -14 -4 -17 6 -11 7 4 29 9 48 11 25
2 32 0 22 -7 -12 -7 -9 -9 10 -10 14 -1 28 -1 33 0 4 0 7 -4 7 -10 0 -5 6 -7
13 -3 8 5 8 2 -2 -9 -12 -15 -11 -17 3 -17 9 0 16 -5 16 -11 0 -5 -6 -7 -12
-3 -10 6 -10 4 0 -8 7 -9 24 -15 37 -13 14 1 22 -1 20 -5 -3 -4 1 -12 8 -18
11 -10 17 -12 35 -12 4 0 1 -4 -7 -9 -9 -6 -10 -11 -2 -15 6 -4 11 -2 11 3 0
6 5 11 11 11 5 0 7 -5 3 -12 -5 -7 -3 -8 7 -2 20 12 40 14 33 3 -3 -5 -10 -6
-16 -3 -7 4 -8 2 -4 -5 4 -6 11 -9 16 -6 4 3 11 -1 13 -7 4 -8 6 -7 6 4 1 9 5
19 10 22 4 3 7 -5 6 -19 -2 -14 1 -22 8 -20 28 10 67 13 62 5 -3 -5 -1 -11 5
-15 5 -3 10 2 11 12 0 16 1 16 9 -2 5 -11 9 -15 9 -10 1 6 6 3 12 -5 9 -12 10
-11 6 7 -3 16 -1 20 10 16 8 -3 12 -13 9 -22 -4 -11 -2 -11 9 3 8 11 18 17 21
13 4 -4 1 -14 -7 -24 -9 -12 -3 -10 19 6 20 14 32 18 30 9 -2 -7 5 -12 14 -12
13 1 15 -2 8 -15 -6 -13 -4 -17 11 -18 12 -1 17 3 13 10 -3 7 2 3 11 -8 17
-22 42 -26 64 -10 11 7 13 7 7 -2 -8 -14 6 -18 18 -6 10 10 36 13 36 3 0 -4 7
-11 16 -14 10 -4 13 -2 8 6 -5 8 -2 9 10 5 10 -4 20 -7 22 -7 3 0 2 -6 -1 -12
-4 -7 1 -4 9 6 14 17 16 18 16 3 0 -9 5 -17 11 -17 5 0 7 5 4 10 -3 6 1 10 9
10 9 0 16 -6 16 -12 1 -7 6 -3 13 10 7 12 16 19 20 16 11 -12 8 -26 -5 -18 -7
4 -8 3 -4 -5 4 -6 13 -8 19 -4 20 12 37 12 37 0 0 -7 5 -5 10 3 9 13 10 13 10
0 0 -13 1 -13 10 0 9 13 10 13 10 0 0 -13 1 -13 10 0 6 10 10 11 10 3 0 -7 5
-13 11 -13 5 0 7 6 3 13 -4 6 3 3 16 -8 13 -11 20 -15 17 -8 -4 6 -3 14 3 18
5 3 10 1 10 -6 0 -8 4 -9 13 0 10 8 17 7 25 -1 9 -9 12 -9 12 1 0 9 4 8 15 -3
16 -16 49 -11 39 6 -3 5 4 4 15 -4 18 -11 23 -11 31 2 6 10 10 11 10 3 0 -8 9
-11 23 -9 12 2 28 -1 34 -6 17 -14 82 -17 90 -5 3 6 1 7 -5 3 -8 -5 -10 -1 -5
10 5 15 7 14 16 -2 15 -28 15 -28 31 -15 11 9 15 8 20 -4 5 -14 8 -14 28 -1
16 10 28 12 38 6 19 -12 43 -13 36 -2 -3 5 1 9 9 9 8 0 12 -4 10 -8 -6 -9 16
-17 33 -12 6 3 10 9 6 14 -3 5 4 5 19 0 33 -13 139 -17 156 -7 9 6 12 5 8 -2
-5 -6 1 -8 15 -4 11 3 19 1 16 -4 -4 -5 4 -9 17 -9 13 0 21 3 19 6 -2 4 7 9
21 11 20 4 23 3 14 -8 -14 -17 2 -19 18 -3 8 8 20 9 42 1 22 -8 32 -8 37 0 5
7 2 8 -6 3 -9 -5 -11 -4 -6 3 10 17 15 15 26 -10 6 -16 9 -18 9 -7 1 22 27 31
43 16 8 -7 20 -13 27 -15 12 -3 12 0 1 12 -16 21 -6 21 14 0 9 -9 16 -11 16
-4 0 6 4 9 9 5 5 -3 13 0 16 5 5 8 12 7 23 -3 10 -8 29 -17 45 -19 24 -5 26
-3 15 10 -11 13 -11 14 2 7 8 -4 23 -15 33 -24 10 -8 18 -11 17 -6 -5 21 1 29
10 15 8 -13 10 -12 10 3 0 17 1 17 16 3 16 -17 39 -22 30 -8 -3 5 1 9 9 9 8 0
12 -4 9 -8 -2 -4 13 -5 33 -3 29 4 34 3 23 -5 -9 -7 -10 -11 -3 -11 6 0 14 4
17 9 3 5 17 9 31 9 15 0 22 -5 18 -12 -4 -6 1 -5 10 3 11 9 17 10 17 2 0 -6 5
-11 11 -11 5 0 7 5 4 10 -3 6 -1 10 4 10 6 0 11 -5 11 -10 0 -7 6 -7 19 0 27
14 36 13 21 -5 -10 -12 -7 -13 18 -6 20 6 34 5 42 -2 10 -9 12 -8 7 4 -3 9 0
16 9 16 7 0 11 -4 9 -8 -3 -3 6 -9 20 -11 18 -4 25 -1 25 11 0 13 2 13 9 2 5
-8 14 -10 21 -6 9 5 11 4 6 -3 -4 -7 -2 -12 3 -12 6 0 11 6 11 13 0 7 7 4 15
-7 13 -17 15 -18 15 -3 0 9 5 17 10 17 6 0 10 -6 10 -12 0 -9 4 -8 10 2 5 8
10 10 10 4 0 -8 13 -9 40 -4 29 5 45 3 61 -8 14 -10 19 -11 14 -3 -5 9 -2 12
11 9 11 -2 18 -10 16 -17 -1 -7 2 -10 8 -6 6 3 8 11 5 16 -4 5 -1 9 4 9 6 0
11 -4 11 -9 0 -10 19 -9 37 2 6 4 13 2 15 -4 2 -6 24 -11 48 -12 25 0 51 -4
58 -10 12 -9 13 -8 16 13 1 13 21 13 21 1 0 -5 3 -13 8 -17 4 -4 7 0 7 9 0 9
5 19 12 23 7 4 8 3 4 -4 -4 -7 -3 -12 3 -12 5 0 13 5 16 10 8 13 25 13 25 -1
0 -5 -4 -8 -8 -5 -5 3 -9 -2 -9 -11 0 -12 5 -11 19 7 10 12 18 18 18 12 0 -5
11 -12 25 -14 21 -4 23 -3 13 9 -9 11 -8 13 3 11 8 -2 17 -7 21 -13 5 -6 8 -4
8 5 1 9 6 6 14 -9 11 -20 14 -21 19 -7 5 12 3 15 -6 10 -6 -4 -8 -3 -4 1 4 5
14 10 23 11 11 2 13 -4 9 -19 -4 -12 -3 -17 2 -12 4 6 15 10 23 10 8 0 21 6
28 15 11 13 12 11 7 -10 -6 -24 -5 -24 9 -6 18 22 57 29 68 12 5 -8 11 -7 20
2 15 15 32 16 22 0 -4 -7 -3 -8 4 -4 7 4 12 14 12 22 0 8 5 12 10 9 6 -4 7
-12 3 -18 -5 -8 -2 -8 9 0 8 7 19 9 23 5 5 -4 5 -1 1 6 -4 7 -12 9 -18 6 -7
-4 -8 -2 -4 5 4 6 11 9 16 6 12 -7 32 30 22 40 -4 5 -1 5 6 1 7 -4 10 -11 8
-15 -3 -4 1 -8 9 -8 18 0 19 9 3 26 -11 11 -9 11 9 2 15 -8 24 -8 28 -1 5 8
11 8 20 0 10 -8 15 -8 20 0 5 8 10 8 20 0 10 -8 14 -7 18 2 4 11 6 11 6 0 1
-10 6 -10 21 -2 15 8 20 8 20 -2 0 -10 2 -10 9 1 5 7 14 10 20 7 6 -4 11 -4
10 1 -3 20 2 27 11 13 7 -11 10 -11 10 -2 0 7 5 10 10 7 6 -3 10 2 10 12 0 15
2 16 10 3 7 -12 10 -12 10 -1 0 7 6 11 15 7 10 -3 15 1 15 12 0 15 2 15 10 2
8 -13 10 -12 10 3 0 10 7 20 15 23 8 4 12 10 9 15 -3 5 4 9 16 9 12 0 18 5 15
10 -4 6 -12 7 -18 4 -7 -4 -8 -3 -4 2 5 5 14 9 20 9 7 0 12 6 12 14 0 8 6 16
14 19 9 3 11 0 7 -9 -4 -8 1 -3 12 10 14 18 21 21 27 11 6 -9 4 -11 -5 -5 -9
6 -11 4 -5 -5 6 -10 11 -9 22 5 8 12 13 14 13 6 0 -11 3 -11 17 0 20 17 17 17
36 1 13 -11 15 -10 10 10 -3 13 -1 19 4 13 13 -16 31 -15 29 2 0 9 9 17 23 20
33 5 36 9 20 30 -11 15 -11 16 1 5 22 -19 39 -14 52 13 9 21 14 23 26 12 13
-10 14 -9 3 10 -10 20 -9 22 6 16 16 -6 16 -5 5 10 -12 14 -11 16 7 12 15 -3
18 0 14 12 -5 12 -3 14 8 8 12 -7 12 -6 1 7 -10 13 -11 22 -2 38 6 11 8 26 4
32 -4 7 -3 8 4 4 7 -4 12 -2 12 4 0 7 7 5 16 -4 21 -22 27 -20 13 5 -7 13 -7
19 -1 15 6 -3 14 -1 17 4 5 8 12 6 24 -4 12 -11 20 -12 31 -5 12 9 12 10 -3 5
-11 -4 -16 -2 -11 5 3 6 15 8 26 6 14 -4 18 -2 14 9 -3 9 -1 12 4 9 6 -3 13 1
16 9 4 12 12 13 32 5 24 -8 25 -8 10 5 -19 14 -25 32 -8 21 11 -7 55 14 46 22
-3 3 -14 0 -23 -8 -10 -7 -7 0 7 16 14 17 27 32 29 35 2 3 1 -3 -2 -13 -4 -11
-3 -16 4 -12 5 4 9 16 7 28 -2 12 2 22 9 22 7 0 18 6 25 14 10 10 10 12 1 7
-7 -4 -13 -3 -13 3 0 5 8 11 17 13 11 2 17 14 19 36 2 21 -1 30 -8 26 -7 -4
-8 -2 -4 4 4 7 15 12 24 12 13 0 13 2 -4 14 -18 14 -18 15 -2 21 10 4 16 10
14 14 -7 11 12 36 21 27 4 -5 2 -11 -5 -13 -6 -3 -10 -9 -7 -14 4 -5 12 -3 19
4 8 6 12 15 9 19 -2 4 4 5 13 1 13 -5 15 -3 9 8 -7 12 -6 12 7 1 13 -10 18
-10 24 -1 5 8 3 9 -6 4 -9 -5 -11 -4 -6 4 5 7 16 9 28 5 15 -4 18 -3 13 7 -6
8 -4 11 6 7 10 -4 15 1 16 12 2 22 34 61 45 54 4 -3 5 2 2 10 -3 9 -1 16 5 16
6 0 11 6 11 14 0 8 5 18 12 22 7 5 8 3 3 -6 -5 -9 -4 -11 3 -6 9 5 9 13 2 26
-9 16 -7 18 11 15 18 -4 19 -2 7 12 -7 9 -8 14 -1 10 13 -8 51 60 47 85 -1 10
2 20 6 23 5 3 7 12 3 20 -3 8 0 15 7 15 7 0 6 6 -4 15 -13 13 -13 20 -3 35 6
11 16 20 21 20 5 0 1 -10 -10 -22 l-19 -22 27 20 c16 11 23 23 18 29 -6 7 -2
11 10 11 10 0 16 -5 13 -10 -4 -5 -1 -6 6 -2 7 5 10 14 7 22 -3 7 0 16 6 20 6
4 8 3 4 -4 -3 -6 -2 -13 3 -16 5 -3 12 1 15 10 3 8 10 12 16 9 6 -4 7 2 1 18
-7 17 -6 24 4 24 8 0 11 -7 7 -16 -3 -9 -2 -13 3 -9 12 11 14 58 2 58 -5 0 -7
3 -4 6 4 4 14 1 24 -7 14 -12 16 -12 8 0 -5 9 -2 19 10 28 11 7 13 13 7 13 -7
0 -12 5 -12 10 0 6 6 10 14 10 20 0 29 17 15 26 -8 5 -9 3 -4 -6 5 -9 4 -11
-3 -6 -13 8 5 46 22 46 4 0 3 -7 -4 -15 -9 -10 -9 -15 -1 -15 6 0 11 3 12 8 0
4 2 15 4 25 2 10 -1 15 -8 11 -7 -3 -3 2 8 11 11 9 19 23 17 32 -2 10 1 12 10
7 7 -4 10 -4 6 1 -4 4 -2 15 5 23 9 13 9 14 0 8 -8 -4 -13 -2 -14 6 0 7 -2 21
-4 30 -2 10 2 15 9 12 14 -5 16 63 3 84 -5 7 -2 14 7 18 9 3 13 11 9 18 -4 6
1 5 10 -3 15 -12 17 -12 12 1 -4 9 0 15 10 16 8 1 22 3 30 4 8 1 13 3 10 6 -2
2 3 18 11 34 8 16 12 33 8 39 -4 8 -1 8 13 1 15 -9 19 -7 20 9 1 13 -2 17 -10
12 -9 -5 -8 -2 0 9 7 8 10 18 6 22 -4 4 0 4 9 1 9 -4 19 -1 24 6 4 7 3 10 -3
6 -6 -4 -13 0 -17 8 -3 8 0 17 6 21 7 5 8 2 4 -7 -4 -8 -1 -6 7 3 8 10 18 14
22 10 4 -4 -1 6 -11 23 -12 18 -14 26 -5 21 10 -7 12 -3 6 15 -7 24 -7 24 9 4
14 -18 15 -18 10 -1 -4 11 -1 22 7 27 10 6 10 9 2 9 -7 0 -13 5 -13 11 0 6 7
8 16 5 10 -4 13 -2 8 6 -11 17 -13 59 -3 52 5 -3 9 0 9 6 0 6 5 8 12 4 7 -4 8
-3 4 5 -4 6 -11 9 -16 6 -5 -3 -12 -1 -15 5 -4 6 -3 10 2 9 20 -3 27 2 13 11
-13 8 -13 10 -1 10 11 0 9 4 -5 15 -10 9 -13 14 -5 13 7 -2 16 3 19 11 3 9 0
12 -10 8 -12 -4 -14 1 -11 21 2 15 5 32 5 39 1 7 5 10 10 7 11 -7 59 31 51 40
-3 3 1 6 10 6 10 0 19 11 23 27 4 16 11 33 15 39 5 6 7 20 4 32 -3 16 0 19 13
15 15 -6 16 -5 2 12 -8 10 -10 16 -3 12 9 -6 11 2 9 28 -1 20 2 39 7 42 6 3 7
1 3 -5 -3 -6 -2 -13 3 -16 11 -7 9 13 -3 33 -7 11 -5 13 6 8 13 -4 15 0 11 25
-3 20 -1 28 6 23 6 -3 11 -1 11 4 0 6 -5 11 -11 11 -5 0 -7 5 -4 10 5 8 12 7
23 -2 15 -12 16 -11 3 4 -7 10 -11 24 -8 32 3 7 1 18 -5 24 -6 6 -6 12 3 17 8
6 10 4 4 -5 -6 -9 -4 -11 4 -6 7 5 10 11 7 14 -3 3 0 12 7 20 8 11 8 14 0 9
-8 -5 -11 2 -11 22 1 18 5 28 11 24 6 -3 7 -1 3 5 -4 7 -14 12 -21 12 -9 0
-12 6 -9 15 4 8 1 22 -6 30 -9 11 -9 15 -1 15 7 0 10 4 7 9 -4 5 4 7 16 4 22
-5 22 -5 5 9 -17 13 -17 15 -3 27 8 7 21 9 27 5 9 -5 10 -2 5 11 -5 15 -4 16
9 5 13 -11 14 -10 9 4 -3 9 -11 16 -17 16 -6 0 -7 3 -4 6 4 4 13 1 21 -5 11
-10 14 -9 12 1 -1 7 -5 19 -10 26 -4 7 -5 16 -2 19 3 4 6 1 6 -5 0 -7 4 -12 8
-12 5 0 7 13 6 30 -1 16 2 27 7 24 5 -3 9 2 9 11 0 10 5 13 12 9 7 -4 8 -3 4
4 -4 6 -14 9 -24 6 -13 -5 -14 -4 -3 4 7 5 11 14 7 20 -3 5 1 15 9 22 11 9 12
17 3 34 l-11 21 24 -20 c15 -12 19 -14 11 -4 -7 9 -14 34 -16 54 -2 33 -1 35
10 20 12 -16 13 -16 11 4 -1 11 -5 21 -9 21 -4 0 -8 5 -8 11 0 5 6 7 13 3 8
-5 8 -2 -2 9 -16 20 -2 23 19 5 12 -11 12 -10 2 3 -16 21 -22 110 -9 127 5 6
6 12 1 12 -5 0 -3 4 5 9 11 7 10 10 -5 15 -11 3 -25 16 -33 28 -13 21 -13 22
2 9 20 -16 22 -8 6 21 -9 16 -8 19 2 13 9 -6 10 -3 5 10 -5 15 -4 16 8 6 12
-10 13 -9 9 8 -3 12 -10 21 -16 21 -6 0 -7 3 -4 6 4 4 14 1 24 -7 15 -12 16
-12 10 4 -4 10 -3 16 2 13 4 -3 16 3 26 14 10 12 13 20 7 20 -7 0 -12 -4 -12
-10 0 -5 -8 -10 -17 -10 -13 0 -9 6 12 20 17 11 23 20 15 20 -9 0 -11 3 -5 8
21 15 35 51 23 58 -7 5 -8 3 -3 -6 5 -9 4 -11 -3 -6 -15 9 -15 12 4 30 8 9 11
16 5 16 -6 0 -11 5 -11 11 0 6 7 9 14 6 10 -4 13 -1 9 9 -3 7 -9 14 -15 14 -5
0 -6 5 -3 10 4 6 11 7 17 4 6 -4 8 -2 4 4 -3 5 -3 12 1 15 5 2 3 2 -4 1 -7 -2
-15 2 -19 8 -4 7 -3 8 4 4 6 -4 16 4 23 16 10 20 10 21 -2 11 -11 -9 -14 -7
-14 12 0 14 4 20 10 15 6 -5 11 1 11 16 1 15 -2 21 -10 17 -6 -4 -5 1 3 10 9
12 10 17 2 17 -8 0 -6 10 4 30 9 17 13 30 9 30 -4 0 0 8 7 18 7 9 9 14 5 10
-5 -4 -15 0 -22 10 -11 14 -9 21 9 40 15 16 17 23 7 20 -8 -2 -14 3 -12 10 1
8 -2 11 -9 6 -9 -5 -10 -2 -6 9 4 11 1 17 -8 17 -8 0 -15 3 -16 8 -4 42 -3 60
4 55 5 -3 6 5 2 18 -7 23 -7 23 8 4 14 -18 15 -17 12 15 -3 30 -1 32 10 17 8
-12 15 -14 20 -8 3 6 1 11 -4 11 -6 0 -11 5 -11 11 0 5 5 7 10 4 6 -3 10 -1
10 4 0 6 -6 11 -12 11 -10 0 -9 3 1 9 7 5 10 14 7 20 -4 6 0 11 11 12 15 0 15
2 3 7 -20 9 -19 30 0 42 11 7 11 10 2 10 -7 0 -11 4 -7 9 3 5 0 13 -6 16 -7 5
-3 15 11 30 16 17 18 25 9 30 -7 5 -10 4 -6 -2 3 -5 0 -10 -8 -10 -11 0 -12 4
-4 13 6 7 7 19 3 26 -4 7 3 4 16 -7 l23 -20 -14 23 c-12 20 -12 24 1 33 13 9
12 10 -3 5 -14 -5 -16 -1 -11 22 4 15 8 29 10 31 2 2 -4 13 -13 23 -13 15 -14
21 -4 31 10 9 11 8 6 -5 -4 -11 -2 -18 5 -18 6 0 8 5 5 10 -3 6 0 10 7 10 10
0 10 2 -1 9 -9 6 -14 24 -13 45 1 20 -3 36 -8 36 -6 0 -10 5 -10 11 0 5 5 7
10 4 6 -3 10 -1 10 4 0 6 -4 11 -10 11 -5 0 -10 7 -10 15 0 7 -8 19 -17 25
-13 8 -13 10 -3 7 10 -3 16 2 16 14 0 14 -3 15 -13 7 -11 -8 -12 -7 -7 7 5 13
4 16 -4 11 -17 -10 -3 26 17 43 15 12 14 13 -1 8 -10 -4 -18 -2 -18 3 0 6 8
10 17 10 15 0 14 2 -3 16 -10 8 -14 13 -7 10 16 -8 44 4 37 16 -4 6 -9 5 -14
-2 -5 -8 -7 -4 -7 12 1 15 7 24 13 21 16 -6 27 14 13 23 -8 5 -9 3 -4 -6 5 -9
4 -11 -4 -6 -8 6 -9 12 -2 20 6 7 8 16 4 20 -11 10 -12 37 -2 30 5 -3 6 -10 3
-16 -4 -6 -3 -8 3 -5 12 7 5 67 -11 86 -8 11 -8 13 0 8 7 -4 14 3 16 18 3 13
2 22 -2 20 -9 -6 -6 47 3 62 4 6 3 13 -1 17 -10 11 -9 30 3 38 6 5 5 8 -3 8
-7 0 -10 5 -7 10 3 6 1 10 -4 10 -6 0 -11 5 -11 11 0 5 3 8 8 6 4 -3 8 6 8 19
1 13 -2 21 -7 18 -5 -3 -9 -1 -9 5 0 5 5 13 10 16 8 5 8 11 1 19 -6 7 -8 16
-4 19 3 4 1 7 -5 7 -14 0 -16 -12 -4 -26 4 -5 2 -5 -5 1 -15 12 -5 57 11 49 6
-3 2 2 -8 10 -11 9 -20 26 -22 38 -1 13 -3 23 -4 23 -1 0 -3 9 -5 19 -2 10 -7
22 -12 25 -4 3 -9 12 -11 20 -3 12 0 12 12 2 12 -10 14 -9 12 6 -2 10 3 26 10
37 11 16 10 23 -4 44 -9 15 -12 23 -6 19 6 -3 19 2 28 12 13 15 14 18 1 18 -8
0 -12 -4 -9 -9 3 -4 -2 -5 -11 -1 -12 4 -13 8 -5 13 14 8 13 19 -3 39 -9 12
-9 13 1 7 7 -4 12 -2 12 4 0 6 5 8 11 5 6 -4 5 2 -2 13 -7 12 -17 18 -21 16
-4 -3 -8 0 -8 5 0 6 10 11 23 11 22 1 22 1 -3 15 -14 8 -20 14 -14 15 7 0 15
7 18 16 5 14 4 15 -8 5 -11 -9 -13 -7 -13 14 0 13 3 23 7 20 3 -2 7 2 7 10 0
8 -4 12 -9 9 -4 -3 -8 9 -8 26 0 21 4 29 12 24 7 -5 8 -3 2 7 -5 8 -9 27 -10
43 -1 15 -7 32 -15 37 -8 5 -10 9 -6 9 4 0 2 10 -4 23 -10 19 -10 20 2 10 12
-9 14 -6 14 17 1 16 -3 26 -8 23 -6 -3 -8 8 -5 25 2 17 1 29 -4 26 -7 -5 -13
26 -9 49 1 4 -4 17 -10 29 -8 15 -8 18 0 14 17 -11 13 5 -6 26 -16 18 -16 18
0 12 10 -3 17 -1 17 5 0 6 -8 11 -17 11 -15 0 -16 2 -3 10 12 7 12 10 1 10 -7
0 -11 6 -8 15 4 8 1 17 -5 21 -7 5 -8 2 -3 -6 5 -9 4 -11 -3 -6 -9 5 -9 13 -1
28 9 16 8 19 -2 13 -9 -6 -11 -2 -7 13 4 14 2 20 -5 15 -6 -4 -8 0 -4 10 4 12
1 17 -9 17 -10 0 -14 6 -11 14 3 8 -2 20 -11 28 -16 12 -16 11 -2 -7 14 -19
14 -19 -3 -6 -14 11 -15 16 -5 29 7 9 8 13 2 9 -6 -3 -17 3 -24 14 -8 10 -20
19 -28 19 -9 0 -11 7 -7 23 4 15 3 18 -3 9 -8 -12 -13 -12 -33 0 -13 7 -25 14
-27 14 -1 1 -4 11 -7 22 -2 11 -8 30 -14 41 -7 13 -8 22 -1 26 16 10 12 25 -7
25 -15 0 -15 2 -4 9 8 5 15 19 16 30 1 15 -2 18 -10 11 -7 -5 -14 -7 -18 -4
-9 9 4 35 14 28 5 -3 6 2 3 10 -3 9 -10 16 -15 16 -5 0 -9 4 -9 10 0 5 8 7 18
4 12 -4 13 -3 4 3 -8 6 -11 21 -8 37 3 15 1 24 -5 21 -5 -4 -10 1 -10 9 -3 36
-5 41 -18 38 -7 -1 -10 2 -6 8 3 6 10 8 14 6 4 -3 8 2 8 10 0 8 -6 13 -13 10
-8 -3 -16 0 -20 6 -4 6 -3 8 3 5 6 -4 13 3 16 14 4 16 2 19 -10 15 -14 -6 -14
-4 -2 11 12 14 12 16 0 8 -11 -6 -13 -4 -7 10 5 15 4 16 -9 5 -13 -11 -14 -10
-9 5 5 13 4 16 -4 11 -8 -5 -10 -1 -5 10 5 13 3 16 -10 11 -9 -3 -19 -1 -23 5
-4 7 -3 8 4 4 19 -11 14 5 -5 21 -10 8 -12 12 -5 8 18 -9 15 6 -5 22 -10 8
-12 11 -5 8 9 -5 13 -1 12 11 -4 35 0 55 9 49 5 -3 13 0 17 6 4 8 3 9 -4 5 -7
-4 -12 -1 -12 8 0 10 6 14 18 10 9 -2 7 1 -5 7 l-22 12 22 19 c12 11 17 17 12
14 -19 -9 -36 10 -35 40 2 61 2 69 -2 86 -2 10 -12 24 -22 31 -16 12 -17 17
-6 36 8 15 8 21 1 17 -6 -4 -11 0 -11 9 0 10 5 13 12 9 7 -4 8 -3 4 4 -4 6
-14 8 -24 5 -15 -6 -15 -5 -3 10 11 14 11 17 0 17 -11 0 -11 2 1 10 12 8 12
10 1 10 -11 0 -11 3 -1 16 11 13 10 16 -8 21 -25 6 -27 13 -9 32 10 11 9 13
-5 8 -10 -4 -18 -2 -18 4 0 6 -4 7 -10 4 -5 -3 -10 -1 -10 5 0 7 9 9 23 5 l22
-7 -23 17 c-12 9 -28 13 -35 10 -6 -4 -3 1 8 10 14 12 16 16 5 15 -30 -4 -42
0 -37 14 4 10 -1 12 -16 9 -18 -4 -19 -3 -7 6 12 8 12 11 1 11 -7 0 -11 6 -8
15 4 8 2 17 -3 20 -6 4 -3 16 6 31 15 22 12 29 -9 25 -5 -1 -6 3 -2 9 3 6 12
7 18 3 7 -4 5 2 -3 12 -14 17 -13 18 2 12 12 -4 15 -2 11 9 -3 7 -9 14 -14 14
-5 0 -7 14 -5 30 2 22 -1 30 -13 31 -14 0 -14 1 -1 7 17 8 20 26 6 39 -5 5 -6
2 -1 -6 6 -10 4 -12 -4 -6 -7 4 -11 18 -8 31 2 14 0 27 -6 31 -6 4 -7 1 -3 -8
4 -8 1 -6 -7 4 -8 9 -13 31 -12 47 2 22 -2 30 -14 30 -12 0 -13 2 -3 9 11 6
10 11 -3 25 -9 9 -21 16 -26 16 -6 0 -3 7 5 16 18 17 21 28 7 19 -5 -3 -12 4
-16 15 -6 18 -17 25 -38 21 -5 -1 -6 3 -2 9 3 6 11 8 16 5 24 -16 5 6 -23 26
-31 21 -32 21 -15 2 14 -16 15 -23 6 -29 -7 -4 -10 -3 -6 3 7 12 -28 44 -39
35 -5 -4 -2 1 6 11 7 10 9 17 4 16 -20 -4 -24 2 -14 21 9 16 8 19 -7 14 -13
-4 -11 1 7 16 l25 23 -25 -8 c-22 -7 -23 -6 -12 8 11 13 10 17 -5 27 -15 9
-14 10 7 4 22 -6 23 -5 11 9 -7 9 -18 14 -24 10 -6 -3 -7 -1 -3 6 4 6 12 9 17
6 5 -4 9 -1 9 4 0 6 -5 11 -11 11 -7 0 -10 12 -7 29 3 18 0 29 -6 28 -6 -1
-12 8 -14 21 -2 12 -8 20 -13 17 -5 -4 -9 5 -9 19 0 32 -10 56 -23 56 -7 0 -7
-4 1 -12 7 -7 12 -16 12 -22 0 -5 -6 -1 -14 9 -9 12 -11 26 -6 35 9 16 -12 55
-23 43 -4 -3 -7 5 -7 20 0 17 -7 28 -19 32 -12 4 -18 12 -14 21 3 9 -1 14 -12
14 -13 0 -15 3 -7 13 8 9 3 12 -24 11 -28 -2 -33 1 -24 11 11 14 -2 30 -14 18
-10 -11 -37 -12 -30 -2 3 5 10 7 15 4 5 -3 6 1 3 9 -3 9 -10 13 -15 10 -5 -3
-6 3 -2 12 4 11 -1 22 -13 32 -16 12 -16 14 -1 9 9 -4 17 -2 17 3 0 6 -6 10
-12 10 -9 0 -8 4 2 10 13 9 7 14 -12 11 -4 0 -5 5 -2 13 3 8 0 17 -6 21 -8 5
-7 11 2 23 10 12 10 14 1 8 -7 -4 -13 -3 -13 1 0 5 6 15 13 22 10 10 9 12 -3
9 -8 -2 -19 7 -25 20 -5 12 -14 22 -19 22 -4 0 -3 7 4 15 10 12 8 13 -10 10
-18 -4 -20 -2 -9 11 10 12 9 13 -7 8 -10 -4 -16 -4 -12 1 4 4 2 17 -4 29 -7
11 -11 25 -10 30 2 5 -3 4 -12 -3 -11 -9 -16 -9 -22 0 -4 8 -3 9 4 5 7 -4 12
-2 12 3 0 6 -5 11 -11 11 -5 0 -7 5 -3 12 5 8 2 9 -10 5 -10 -4 -15 -3 -11 3
3 6 -1 13 -9 16 -9 3 -14 10 -11 14 3 4 -2 10 -10 13 -10 4 -12 1 -9 -11 2 -9
-1 -7 -7 6 -7 12 -16 22 -21 22 -5 0 -7 -4 -3 -9 3 -5 0 -13 -6 -17 -7 -4 -10
-3 -6 2 3 5 -2 18 -10 29 -13 17 -15 17 -9 2 3 -10 2 -16 -3 -12 -5 3 -11 -1
-14 -7 -2 -7 -5 -1 -6 15 -1 15 -2 38 -3 51 -1 14 -6 22 -11 19 -6 -4 -8 5 -5
21 3 14 1 29 -4 32 -4 3 -6 10 -3 15 3 5 -2 6 -11 2 -12 -4 -15 -3 -10 5 4 7
2 12 -5 12 -8 0 -7 5 2 16 12 15 11 16 -11 9 -20 -6 -23 -5 -12 6 6 7 12 18
12 23 0 6 -5 4 -10 -4 -7 -11 -10 -11 -10 -2 0 7 -5 10 -11 6 -8 -5 -8 -1 0
14 9 18 8 19 -12 15 -18 -4 -19 -3 -7 7 13 10 11 11 -7 7 -15 -3 -20 -1 -16 9
5 13 -9 19 -32 14 -5 -1 -7 2 -2 6 4 4 -1 17 -10 28 -13 15 -10 14 12 -4 l29
-25 -25 31 c-23 30 -49 41 -45 20 2 -6 1 -8 -1 -3 -3 4 -10 7 -17 7 -7 0 -18
10 -25 23 -6 12 -9 14 -7 5 3 -11 0 -15 -9 -12 -8 3 -16 13 -18 22 -4 15 -5
15 -6 0 0 -10 -6 -18 -12 -18 -6 0 -9 6 -6 13 5 12 -30 43 -44 40 -3 -1 -6 4
-6 12 0 8 3 12 7 10 3 -2 6 5 6 15 0 10 -4 16 -8 14 -4 -3 -8 0 -8 6 0 15 -26
41 -34 33 -3 -4 -6 1 -6 11 0 11 -4 15 -12 10 -8 -5 -7 0 2 11 9 11 10 16 3
11 -7 -4 -13 -2 -13 4 0 6 -7 10 -16 8 -10 -2 -19 4 -21 12 -4 13 -3 13 6 0 9
-13 11 -12 11 3 0 14 -5 17 -22 12 -16 -6 -20 -4 -15 8 4 11 2 14 -9 10 -7 -3
-14 0 -14 6 0 6 -9 11 -19 11 -11 0 -21 6 -24 13 -3 9 -10 9 -28 -2 -21 -12
-22 -12 -12 0 7 8 8 20 4 28 -6 10 -10 9 -15 -5 -3 -9 -9 -14 -13 -11 -3 4
-13 1 -22 -6 -14 -11 -14 -10 -2 6 14 18 13 18 -17 14 -18 -3 -32 -1 -32 3 0
5 -9 12 -21 15 -17 6 -18 9 -7 23 11 13 11 15 -3 10 -13 -5 -16 -2 -12 15 4
18 3 20 -7 7 -10 -12 -11 -11 -7 8 4 18 3 21 -7 13 -17 -14 -29 -1 -14 16 8
11 7 12 -6 7 -9 -3 -16 -1 -16 5 0 6 -7 8 -17 4 -10 -4 -14 -2 -10 4 4 6 0 14
-9 17 -8 3 -13 2 -9 -3 12 -21 -29 -3 -46 20 -10 13 -19 20 -19 16 0 -4 -10
-3 -22 3 -22 11 -22 10 -4 -4 11 -9 15 -16 9 -16 -6 0 -22 9 -37 21 -23 18
-25 19 -19 2 6 -15 4 -16 -8 -6 -9 7 -20 8 -28 3 -16 -10 -36 -4 -73 22 -14
10 -34 18 -43 18 -10 0 -13 5 -9 13 6 8 3 8 -9 -1 -14 -12 -16 -11 -12 8 2 13
2 20 -2 17 -3 -4 -14 -2 -24 4 -14 7 -17 6 -13 -5 3 -8 0 -17 -7 -22 -7 -4
-10 -3 -6 2 3 5 -1 18 -9 29 -14 19 -14 19 -14 -1 -1 -19 -1 -19 -16 1 -16 19
-16 19 -10 -5 7 -24 6 -24 -9 3 -16 28 -28 37 -19 13 6 -16 -22 -30 -32 -15
-4 6 -11 5 -22 -3 -14 -12 -14 -10 -3 10 11 20 9 32 -3 14z m-67 -29 c-6 -7
-15 -10 -20 -7 -13 8 -3 21 15 21 12 0 13 -4 5 -14z m44 0 c-3 -7 -6 -13 -8
-13 -2 0 -5 6 -8 13 -3 8 1 14 8 14 7 0 11 -6 8 -14z m296 -70 c2 -1 -5 -1
-16 0 -11 0 -20 7 -20 14 0 10 4 10 16 1 9 -7 18 -13 20 -15z m-1725 -19 c3
-8 2 -12 -4 -9 -6 3 -10 10 -10 16 0 14 7 11 14 -7z m-174 -3 c0 -6 -4 -12 -8
-15 -5 -3 -9 1 -9 9 0 8 4 15 9 15 4 0 8 -4 8 -9z m-465 -40 c3 -5 2 -12 -3
-15 -5 -3 -9 1 -9 9 0 17 3 19 12 6z m3059 -317 c3 -8 2 -12 -4 -9 -6 3 -10
10 -10 16 0 14 7 11 14 -7z m41 -74 c3 -6 -1 -7 -9 -4 -18 7 -21 14 -7 14 6 0
13 -4 16 -10z m-2284 -545 c5 4 6 -1 3 -9 -5 -12 0 -16 17 -16 22 0 22 -1 4
-14 -18 -13 -17 -13 9 -11 15 2 25 1 22 -2 -3 -3 2 -12 10 -20 8 -8 11 -20 7
-26 -3 -7 4 -3 18 8 13 11 18 13 12 5 -18 -19 -16 -35 1 -20 13 10 14 7 10
-17 l-4 -28 13 24 c13 22 14 22 22 5 7 -18 7 -18 15 1 l9 20 0 -20 c1 -17 3
-17 11 -5 7 12 10 12 10 1 0 -7 6 -11 13 -8 8 3 14 0 14 -6 0 -7 3 -24 6 -40
3 -15 2 -25 -2 -23 -4 3 -8 -1 -8 -9 0 -8 4 -12 9 -9 4 3 8 -7 8 -21 0 -18 4
-24 13 -19 9 5 9 4 0 -6 -10 -11 -9 -16 5 -27 9 -8 11 -11 3 -7 -10 5 -12 3
-7 -5 5 -7 14 -10 22 -7 9 3 11 0 7 -11 -5 -12 -3 -14 8 -8 12 8 12 6 0 -8
-11 -14 -11 -18 3 -23 9 -3 13 -11 9 -18 -4 -6 0 -5 9 2 14 11 16 10 11 -7 -3
-13 -1 -21 6 -21 7 0 9 4 6 10 -4 6 1 7 11 3 11 -4 13 -8 6 -11 -7 -2 -12 -8
-12 -13 0 -6 6 -7 13 -3 7 5 7 2 -2 -10 -8 -9 -10 -16 -5 -15 20 3 32 -2 38
-17 5 -12 3 -14 -7 -8 -7 5 -4 1 6 -8 11 -10 23 -15 28 -12 5 3 9 -2 9 -11 0
-9 5 -13 10 -10 6 3 10 1 10 -6 0 -8 4 -8 15 1 13 11 14 10 10 -1 -4 -11 3
-14 28 -14 21 1 34 -3 34 -11 0 -7 -3 -11 -6 -9 -4 2 -6 -13 -5 -33 0 -20 -3
-43 -9 -49 -6 -9 -6 -13 2 -13 7 0 9 -4 6 -10 -3 -5 0 -7 7 -5 9 4 14 -3 15
-17 2 -18 0 -20 -7 -8 -8 11 -9 9 -7 -9 2 -14 10 -27 18 -29 11 -3 11 -1 -1 7
-13 9 -13 11 3 11 19 0 22 -11 6 -27 -8 -8 -7 -13 2 -18 8 -5 10 -4 5 3 -4 7
-5 12 -3 12 3 0 15 -17 27 -37 15 -25 16 -32 6 -23 -14 11 -16 10 -10 -4 3 -9
11 -16 18 -16 6 0 4 -5 -4 -11 -12 -9 -10 -10 8 -6 20 5 21 3 11 -10 -11 -12
-9 -18 11 -33 15 -11 21 -23 17 -34 -4 -9 -2 -16 3 -16 6 0 10 5 10 12 0 6 3
8 6 5 4 -4 1 -14 -7 -24 -9 -11 -10 -14 -1 -9 6 4 12 2 12 -3 0 -6 -5 -11 -12
-11 -6 0 -9 -3 -6 -6 4 -3 15 -1 26 5 17 9 19 8 15 -8 -3 -10 1 -22 8 -26 8
-5 10 -4 5 3 -5 8 -2 10 8 6 9 -3 13 -11 9 -18 -4 -6 2 -4 12 4 11 9 16 10 11
3 -5 -9 -1 -13 12 -13 28 0 49 -27 33 -43 -10 -9 -11 -8 -6 4 4 10 3 19 -2 22
-4 3 -8 -10 -8 -29 0 -19 5 -34 10 -35 6 0 1 -4 -10 -9 -17 -7 -17 -9 -2 -9 9
-1 17 -6 17 -12 0 -5 -4 -8 -8 -5 -5 3 -9 -1 -9 -9 0 -8 5 -11 11 -8 6 4 5 -1
-3 -10 -7 -9 -9 -17 -3 -17 5 0 13 -7 16 -16 6 -15 4 -15 -11 -3 -15 12 -16
12 -8 -1 4 -8 15 -24 24 -34 9 -11 11 -16 4 -13 -6 4 -14 3 -18 -3 -5 -9 7
-14 27 -11 4 0 5 -6 2 -14 -3 -8 1 -22 10 -30 9 -9 16 -21 16 -28 0 -6 -7 -2
-15 9 -12 14 -12 10 2 -16 9 -19 17 -38 18 -42 0 -3 4 -10 9 -15 5 -5 6 -2 1
6 -6 10 -4 12 4 7 9 -6 9 -11 -1 -24 -11 -13 -10 -15 4 -9 13 4 15 2 11 -10
-3 -8 0 -19 8 -24 12 -7 12 -9 0 -9 -11 0 -10 -4 5 -16 10 -8 14 -13 7 -10
-10 5 -10 0 -4 -33 1 -2 8 2 16 9 9 7 18 10 22 6 3 -3 2 -6 -4 -6 -5 0 -10 -7
-10 -15 0 -12 3 -12 15 -2 13 11 14 9 2 -13 -11 -22 -11 -23 1 -13 9 7 20 8
29 3 8 -5 18 -6 22 -4 4 3 5 -3 1 -12 -5 -13 -3 -15 8 -9 11 6 12 5 2 -5 -10
-11 -9 -17 4 -32 15 -17 15 -18 1 -13 -13 5 -15 2 -11 -14 3 -12 -2 -32 -11
-46 -15 -22 -15 -25 2 -34 13 -8 14 -11 2 -11 -12 0 -11 -3 3 -11 12 -7 15
-15 8 -26 -11 -21 -2 -55 13 -46 6 4 4 -2 -4 -12 -8 -10 -10 -16 -4 -12 7 4
15 0 18 -9 4 -11 2 -15 -8 -11 -10 4 -13 1 -10 -8 3 -8 13 -11 22 -8 14 5 15
3 5 -7 -9 -10 -7 -17 10 -31 18 -14 20 -20 9 -31 -11 -11 -13 -10 -9 2 2 8 2
12 0 7 -3 -4 -10 -4 -16 0 -6 3 2 -10 17 -30 27 -36 25 -50 -4 -24 -8 6 -6 2
4 -10 10 -13 22 -21 26 -18 9 6 6 -27 -5 -44 -5 -10 -4 -12 3 -7 11 6 17 -13
13 -37 -1 -5 3 -6 9 -2 6 3 7 11 4 17 -4 7 -2 8 5 4 6 -4 9 -12 6 -17 -4 -5
-1 -17 5 -26 10 -16 11 -16 6 -1 -3 12 -1 15 9 12 8 -3 13 -11 12 -17 -1 -7 4
-11 11 -9 6 1 12 -3 12 -9 0 -5 5 -7 12 -3 7 4 8 3 4 -5 -4 -6 -11 -9 -15 -7
-13 8 -6 -31 8 -48 12 -14 12 -16 -2 -11 -8 4 -18 1 -23 -6 -4 -8 -3 -10 4 -5
7 4 12 1 12 -9 0 -9 -4 -14 -9 -11 -5 3 -11 -1 -14 -9 -4 -9 -1 -12 8 -9 9 4
12 -1 10 -13 -2 -10 -4 -22 -4 -27 -1 -5 -8 -2 -18 5 -15 13 -15 12 -3 -8 8
-12 19 -19 25 -15 5 3 4 -2 -4 -11 -11 -14 -11 -17 0 -18 10 0 10 -2 2 -5 -14
-6 -6 -34 16 -53 15 -12 14 -13 -1 -8 -10 3 -20 2 -23 -3 -4 -6 1 -10 9 -10 9
0 16 -5 16 -11 0 -5 -4 -7 -10 -4 -6 3 -7 -1 -4 -9 3 -9 9 -14 13 -11 12 7 9
-29 -3 -37 -7 -5 -6 -8 3 -8 11 0 11 -3 0 -17 -8 -9 -9 -14 -4 -11 6 4 16 -2
23 -12 9 -14 9 -21 0 -26 -7 -5 -8 -3 -3 6 6 9 4 11 -5 5 -10 -6 -9 -11 5 -21
10 -7 15 -20 12 -29 -4 -8 -1 -15 6 -16 9 0 9 -2 0 -6 -7 -2 -13 -9 -13 -14 0
-6 4 -8 9 -5 10 6 21 -16 21 -40 0 -9 -5 -12 -12 -8 -7 4 -8 3 -4 -5 4 -6 11
-9 16 -6 4 3 14 -3 21 -12 10 -11 10 -14 2 -9 -9 5 -11 2 -7 -8 5 -12 10 -13
26 -5 16 9 19 8 12 -3 -14 -22 -13 -39 2 -45 12 -4 12 -8 -3 -19 -12 -9 -14
-13 -5 -14 7 0 10 -5 7 -10 -4 -6 -11 -8 -16 -5 -5 3 -6 -1 -3 -10 4 -8 1 -22
-6 -30 -10 -12 -10 -18 -1 -29 9 -11 9 -16 0 -21 -8 -6 -7 -10 2 -16 11 -7 11
-9 1 -9 -8 0 -10 -5 -6 -12 13 -21 12 -49 -2 -44 -8 3 -11 0 -7 -9 3 -8 9 -12
14 -9 12 7 11 -3 -1 -27 -9 -15 -7 -19 7 -19 15 0 15 -1 -2 -13 -14 -11 -15
-16 -5 -22 9 -6 11 -4 5 5 -5 8 -4 11 3 7 5 -4 8 -16 5 -27 -3 -11 -10 -17
-16 -13 -6 3 -7 1 -3 -6 4 -6 11 -9 16 -6 5 3 11 1 14 -4 3 -5 -4 -11 -15 -14
-12 -3 -18 -10 -15 -16 4 -6 12 -8 20 -5 7 3 13 -2 13 -10 0 -8 -4 -13 -9 -10
-4 3 -8 0 -8 -5 0 -6 6 -11 13 -11 8 0 7 -4 -3 -10 -9 -6 -11 -10 -3 -10 8 0
10 -7 6 -17 -6 -16 -5 -17 13 -3 17 14 18 13 7 -1 -7 -9 -9 -20 -5 -24 4 -5 2
-5 -4 -2 -7 4 -14 0 -17 -8 -4 -9 -1 -12 7 -9 8 3 17 0 22 -7 4 -8 3 -10 -4
-5 -7 4 -12 3 -12 -1 0 -5 9 -14 20 -21 17 -11 19 -16 9 -35 -11 -19 -10 -21
3 -9 22 17 34 -3 16 -25 -7 -9 -8 -14 -2 -10 7 4 14 0 18 -8 3 -9 0 -15 -9
-15 -8 0 -15 -5 -15 -11 0 -5 4 -8 9 -4 5 3 13 0 17 -6 5 -8 3 -9 -6 -4 -10 6
-12 4 -6 -10 6 -16 4 -16 -11 -4 -10 7 -15 10 -11 5 4 -4 3 -19 -2 -32 -7 -17
-6 -24 3 -25 6 0 3 -4 -9 -9 -23 -9 -25 -32 -4 -70 13 -24 12 -24 -5 -10 -17
14 -18 14 -6 -7 6 -13 8 -23 4 -23 -4 0 -1 -5 7 -10 11 -7 11 -10 2 -10 -7 0
-10 -4 -7 -10 3 -5 0 -10 -7 -10 -10 0 -10 -2 0 -9 8 -4 15 -22 16 -39 1 -17
-1 -29 -5 -26 -4 2 -10 0 -14 -6 -3 -5 -1 -10 5 -10 6 0 9 -4 5 -9 -3 -5 -1
-13 5 -16 8 -5 6 -15 -5 -32 -10 -14 -12 -22 -5 -18 10 6 12 1 8 -19 -3 -15
-1 -26 6 -26 6 0 3 -5 -7 -11 -14 -8 -16 -14 -7 -25 19 -21 18 -104 0 -104
-13 0 -13 -2 -1 -9 16 -10 23 -51 9 -51 -16 0 -7 -20 10 -21 14 0 14 -2 -3 -9
-11 -5 -15 -9 -9 -9 6 -1 9 -15 7 -33 -3 -25 -2 -30 6 -18 6 8 11 10 11 5 0
-6 -5 -16 -12 -23 -9 -9 -9 -12 1 -12 11 0 11 -3 0 -17 -12 -15 -12 -16 4 -10
19 7 24 -8 5 -17 -10 -5 -10 -7 0 -12 6 -3 12 -10 12 -15 0 -6 -4 -7 -10 -4
-15 9 -12 -2 6 -20 9 -8 16 -31 17 -50 1 -29 3 -31 13 -17 7 9 16 14 20 9 4
-4 1 -7 -7 -7 -11 0 -11 -2 1 -10 11 -7 11 -10 2 -10 -7 0 -2 -10 12 -23 14
-13 23 -27 19 -30 -12 -13 13 -7 26 6 11 10 12 8 6 -12 -6 -20 -5 -23 10 -17
14 5 15 4 7 -7 -8 -10 -6 -13 8 -13 10 0 16 4 14 8 -3 4 2 5 11 2 13 -5 13 -9
3 -22 -10 -12 -10 -14 -1 -8 7 4 20 -2 30 -13 9 -11 21 -17 27 -14 6 3 5 0 -1
-7 -11 -12 -16 -11 -29 6 -15 18 -15 18 -5 -3 14 -29 14 -46 -1 -37 -8 5 -8 3
-2 -7 5 -8 10 -36 11 -64 1 -27 2 -50 3 -50 7 0 4 -47 -3 -52 -6 -3 -7 -1 -3
5 3 6 2 13 -3 16 -5 4 -8 -2 -6 -11 2 -10 4 -26 4 -35 1 -12 7 -16 19 -12 14
5 14 4 2 -4 -8 -6 -18 -8 -22 -6 -4 3 -8 0 -8 -5 0 -6 6 -11 13 -11 8 0 7 -4
-3 -10 -10 -6 -11 -10 -2 -10 6 0 12 -5 12 -11 0 -5 -3 -8 -7 -6 -5 3 -8 -6
-8 -19 0 -15 5 -23 14 -21 8 1 16 -4 18 -10 3 -7 0 -13 -7 -13 -6 0 -8 5 -4
12 4 7 3 8 -4 4 -9 -5 -9 -13 -2 -27 6 -10 13 -19 16 -19 3 0 2 6 -2 13 -5 8
-2 8 9 -2 18 -15 23 -26 7 -16 -15 9 -12 -2 8 -32 9 -15 12 -24 5 -20 -6 4
-14 3 -18 -3 -3 -5 -1 -10 5 -10 6 0 9 -4 5 -10 -3 -5 -11 -8 -18 -6 -7 1 -9
1 -4 -1 14 -9 7 -24 -10 -21 -11 2 -18 -3 -18 -12 0 -8 -7 -18 -15 -22 -12 -5
-11 -7 3 -7 10 -1 15 -6 12 -11 -4 -6 -11 -7 -17 -4 -5 4 -4 -4 3 -17 11 -22
11 -23 -5 -10 -15 12 -17 12 -14 0 2 -8 9 -19 17 -25 11 -9 12 -12 1 -19 -9
-5 -11 -4 -6 3 4 7 3 12 -2 12 -13 0 -22 -39 -11 -46 5 -3 5 -12 0 -22 -4 -9
-6 -23 -3 -31 3 -9 0 -11 -8 -6 -9 6 -11 4 -4 -6 14 -24 16 -51 2 -43 -8 5 -7
0 2 -11 8 -10 10 -16 3 -12 -6 4 -14 3 -18 -3 -6 -9 8 -15 29 -11 5 1 4 -5 -4
-13 -15 -19 -24 -21 -14 -4 6 10 4 10 -6 1 -12 -11 -11 -15 6 -28 10 -9 13
-14 5 -13 -7 2 -16 -3 -19 -11 -2 -8 0 -11 6 -7 11 7 11 -12 -1 -31 -5 -8 -3
-13 5 -13 8 0 9 -3 3 -8 -14 -10 -17 -32 -4 -32 8 0 7 -5 -1 -15 -10 -13 -11
-18 -1 -28 10 -9 11 -8 5 8 -7 20 -7 20 9 0 10 -13 12 -22 5 -27 -8 -4 -6 -12
5 -23 22 -21 22 -31 0 -14 -14 12 -16 12 -8 0 5 -9 2 -19 -11 -29 -18 -13 -18
-14 6 -8 25 6 25 6 3 -5 -24 -13 -31 -29 -11 -29 6 0 8 -3 5 -7 -4 -3 -16 2
-27 12 -18 17 -20 17 -14 2 3 -10 1 -17 -5 -17 -13 0 -10 -22 4 -32 6 -4 0 -8
-12 -8 -13 0 -23 -5 -23 -11 0 -5 4 -8 9 -4 5 3 13 0 17 -6 4 -7 3 -9 -4 -5
-6 3 -14 1 -19 -6 -10 -17 -11 -58 -1 -52 4 3 8 1 8 -4 0 -6 -7 -12 -15 -16
-8 -3 -12 -12 -9 -20 3 -8 1 -17 -5 -20 -11 -7 -3 -37 12 -47 5 -3 1 -9 -8
-12 -11 -5 -14 -3 -9 6 5 9 3 8 -7 -1 -12 -11 -12 -14 1 -22 10 -7 11 -10 3
-10 -8 0 -13 -13 -13 -31 0 -16 -4 -28 -8 -25 -5 3 -9 -1 -9 -9 0 -8 4 -12 9
-9 4 3 8 0 8 -5 0 -6 -6 -11 -12 -12 -10 0 -10 -2 0 -6 6 -2 12 -9 12 -14 0
-6 -4 -8 -8 -5 -5 3 -9 -1 -9 -9 0 -8 4 -12 9 -9 4 3 8 0 8 -5 0 -6 -5 -11
-11 -11 -6 0 -3 -7 6 -16 11 -11 13 -20 6 -27 -14 -14 6 -50 22 -40 8 5 8 2
-1 -9 -7 -8 -9 -24 -6 -34 4 -11 4 -16 -1 -12 -4 4 -14 0 -22 -10 -8 -9 -12
-12 -9 -5 4 6 2 15 -4 18 -6 4 -10 3 -9 -2 4 -22 -2 -32 -16 -27 -15 6 -22
-11 -7 -19 4 -2 2 -2 -5 -1 -7 2 -15 -1 -18 -6 -4 -6 -1 -10 5 -10 6 0 8 -5 5
-10 -5 -8 -12 -7 -23 2 -15 11 -15 10 0 -8 17 -19 16 -21 -3 -38 -17 -14 -19
-20 -7 -33 11 -14 11 -16 -4 -10 -13 5 -16 1 -12 -19 3 -18 0 -24 -13 -24 -15
0 -15 -2 3 -15 13 -10 14 -14 5 -15 -11 0 -11 -3 -1 -15 7 -9 10 -18 6 -22 -3
-3 -6 -1 -6 6 0 7 -4 10 -9 7 -5 -4 -12 0 -14 6 -3 7 -3 -5 0 -26 5 -32 4 -38
-8 -31 -12 8 -12 6 -1 -8 12 -14 11 -21 -9 -48 -13 -18 -18 -29 -12 -26 8 5
11 0 10 -13 -1 -11 -6 -20 -12 -20 -5 0 -3 -5 5 -10 10 -6 11 -10 3 -10 -7 0
-13 -5 -13 -11 0 -5 6 -7 13 -3 8 5 8 2 -2 -9 -7 -10 -9 -17 -3 -17 6 0 9 -8
7 -17 -1 -10 2 -27 8 -38 9 -18 9 -19 -7 -6 -14 12 -16 12 -9 -4 5 -14 3 -17
-9 -12 -9 3 -24 -1 -35 -9 -10 -9 -12 -13 -5 -9 6 3 12 1 12 -6 0 -6 -8 -9
-20 -6 -11 3 -23 0 -27 -5 -3 -7 -1 -8 5 -4 7 4 12 4 12 -1 0 -14 -19 -38 -30
-39 -5 -1 -13 -2 -16 -3 -4 0 0 -9 7 -18 12 -15 12 -16 -5 -10 -16 6 -17 5 -6
-8 10 -12 10 -15 -1 -15 -11 0 -11 -2 1 -10 13 -8 13 -10 -1 -10 -9 0 -19 -7
-23 -15 -3 -8 0 -15 6 -15 6 0 1 -9 -12 -20 -13 -11 -19 -20 -14 -20 6 0 16 6
23 13 11 10 11 8 0 -10 -7 -12 -17 -19 -21 -17 -4 3 -8 3 -8 0 0 -2 -3 -13 -7
-23 -6 -16 -5 -17 12 -3 18 14 18 14 0 -11 -11 -15 -23 -25 -27 -23 -4 3 -3
-10 2 -27 8 -28 7 -29 -7 -17 -15 12 -15 11 -3 -12 11 -22 11 -23 -1 -13 -14
12 -15 6 -10 -50 1 -5 7 -5 14 -1 9 6 9 4 -1 -8 -7 -9 -14 -24 -17 -34 -2 -11
-7 -28 -11 -38 -6 -15 -4 -17 6 -11 9 5 11 4 6 -3 -5 -8 -13 -9 -25 -2 -14 7
-23 5 -35 -9 -14 -15 -14 -20 -4 -25 7 -3 2 -3 -11 0 -17 5 -21 3 -16 -7 6 -9
3 -11 -9 -6 -10 4 -15 3 -11 -3 3 -6 1 -10 -4 -10 -6 0 -11 -4 -11 -10 0 -5 7
-7 16 -3 14 5 13 3 -2 -15 -20 -24 -30 -29 -18 -10 4 7 3 8 -4 4 -9 -5 -9 -13
-2 -26 8 -16 7 -18 -9 -15 -15 3 -18 0 -14 -12 4 -11 2 -14 -5 -9 -15 9 -15 1
-2 -25 6 -11 7 -19 3 -18 -18 3 -36 -1 -30 -7 3 -4 -2 -14 -11 -23 -10 -9 -13
-12 -6 -8 7 5 15 2 20 -5 4 -7 4 -10 0 -6 -5 4 -14 1 -21 -5 -10 -9 -10 -15
-1 -26 8 -12 8 -13 -1 -7 -20 11 -36 -3 -22 -20 6 -8 7 -14 2 -14 -5 0 -10
-17 -10 -37 -1 -61 -2 -65 -15 -57 -7 5 -8 3 -3 -6 4 -7 2 -16 -6 -21 -8 -5
-17 -3 -21 4 -5 8 -8 6 -8 -6 0 -10 -4 -16 -9 -13 -5 3 -12 -1 -15 -9 -6 -16
-26 -16 -39 0 -5 6 -5 0 -2 -13 4 -12 3 -22 -2 -21 -20 3 -25 -2 -13 -16 11
-13 10 -14 -4 -9 -11 4 -16 1 -16 -11 0 -9 -4 -13 -10 -10 -5 3 -10 1 -10 -5
0 -7 -8 -10 -17 -6 -16 5 -16 4 -2 -6 15 -10 15 -13 0 -30 -8 -10 -22 -18 -30
-18 -8 0 -11 -3 -8 -7 4 -3 1 -13 -6 -21 -8 -11 -8 -14 0 -9 6 4 15 2 19 -4 4
-7 3 -9 -4 -5 -6 3 -13 2 -17 -4 -4 -6 -11 -7 -17 -4 -5 4 -4 -4 3 -17 11 -21
11 -23 -4 -11 -13 11 -15 11 -13 0 1 -7 6 -19 10 -27 6 -10 5 -12 -2 -7 -22
13 -36 -6 -16 -21 18 -13 17 -14 -11 -9 -26 4 -28 3 -13 -8 11 -8 14 -17 8
-26 -5 -8 -7 -17 -5 -21 3 -3 -7 -5 -20 -3 -14 1 -28 -3 -32 -8 -4 -7 -1 -8 7
-3 9 5 11 4 6 -4 -4 -6 -13 -8 -19 -4 -18 11 -38 12 -31 2 5 -9 -10 -13 -30
-10 -5 1 -3 -5 4 -14 11 -13 10 -15 -4 -9 -19 7 -22 -12 -3 -20 8 -4 7 -5 -3
-5 -30 2 -41 -1 -35 -11 3 -6 -4 -10 -17 -11 -13 0 -18 -3 -11 -5 7 -3 9 -12
6 -20 -4 -12 -8 -12 -19 3 -10 12 -12 13 -9 3 3 -9 -4 -21 -16 -28 -19 -12
-20 -11 -15 10 3 13 3 17 0 10 -3 -6 -11 -9 -16 -6 -6 4 -8 2 -4 -4 3 -6 2
-13 -3 -16 -5 -3 -8 7 -7 23 2 23 -1 27 -18 23 -12 -3 -17 -1 -13 5 4 6 -6 16
-22 23 -16 6 -32 19 -36 28 -5 14 -4 14 13 -1 10 -9 22 -17 26 -17 5 0 -2 9
-15 19 -18 14 -27 16 -37 9 -10 -8 -11 -6 -6 8 6 15 4 17 -6 7 -10 -9 -18 -8
-35 3 -13 8 -29 13 -36 12 -8 -2 -13 3 -11 10 1 6 3 17 5 23 1 6 -5 14 -13 16
-13 4 -13 3 0 -7 12 -9 12 -11 1 -8 -8 2 -15 14 -16 26 -1 14 2 19 9 13 7 -6
11 -2 11 14 0 15 -4 20 -10 15 -7 -6 -11 0 -13 16 -1 14 -9 32 -17 40 -21 21
-19 30 3 13 15 -13 16 -12 3 4 -7 9 -20 17 -28 17 -10 0 -14 7 -10 20 3 11 1
18 -4 14 -5 -3 -10 0 -10 5 -1 6 -3 16 -4 21 -1 6 -3 16 -4 23 -1 8 -4 7 -11
-3 -8 -13 -10 -12 -10 3 0 9 -5 17 -11 17 -20 0 -35 25 -34 56 1 23 -3 30 -13
26 -8 -3 -2 7 13 22 15 16 23 31 19 39 -6 9 -5 9 8 0 16 -14 28 -8 28 15 0 8
8 21 18 29 9 8 11 12 5 8 -9 -4 -11 -1 -7 9 3 9 10 14 14 11 4 -3 7 9 6 25 -2
21 2 30 13 30 14 0 14 1 1 10 -8 5 -10 10 -4 10 7 0 15 7 18 16 5 14 4 15 -9
4 -13 -11 -14 -10 -9 5 6 14 4 16 -7 10 -12 -8 -12 -6 0 8 7 9 19 17 25 17 6
0 4 -5 -4 -10 -8 -5 -10 -10 -4 -10 6 0 18 8 25 17 8 9 9 14 3 10 -7 -4 -17
-1 -23 7 -8 10 -8 16 3 25 8 7 12 19 9 27 -3 8 1 14 8 14 8 0 6 5 -6 13 -12
10 -15 19 -9 28 13 21 14 40 1 32 -6 -4 -8 0 -4 9 3 9 0 21 -6 28 -9 9 -9 11
-1 7 14 -8 29 24 16 32 -13 8 -11 45 2 53 7 5 6 8 -3 8 -11 0 -11 3 0 17 8 9
9 14 3 10 -13 -8 -14 56 -1 69 11 11 8 26 -4 18 -6 -3 -4 5 5 18 9 14 13 28 9
31 -3 4 3 16 15 28 13 11 19 25 15 32 -4 7 0 6 10 -2 14 -11 18 -11 23 3 3 9
13 16 21 16 8 0 11 5 7 12 -5 8 0 9 15 5 19 -5 20 -3 10 9 -7 8 -8 14 -3 13 5
-1 18 -1 29 0 17 1 18 3 5 12 -12 9 -11 10 8 6 12 -3 20 -1 16 4 -3 5 0 9 6 9
6 0 9 4 5 9 -3 5 -1 12 5 16 5 3 10 1 10 -5 0 -6 5 -8 11 -5 6 4 8 13 5 21 -3
8 0 11 10 7 9 -3 14 1 14 13 0 16 2 17 10 4 8 -13 10 -12 10 3 0 10 5 15 10
12 6 -3 10 1 10 9 0 8 5 18 12 22 6 4 8 3 5 -3 -3 -5 0 -10 7 -10 7 0 11 7 9
16 -2 10 5 20 19 26 13 6 24 19 26 30 2 11 8 25 14 30 6 6 7 3 3 -10 -6 -18
-5 -18 5 -2 6 9 8 23 4 30 -6 9 -4 9 8 -1 13 -11 16 -10 14 5 0 10 5 18 12 19
25 3 27 5 12 14 -13 8 -13 10 2 10 11 0 15 5 12 14 -3 8 0 17 5 21 6 3 8 11 5
17 -4 7 -2 8 5 4 9 -6 9 -12 -1 -24 -10 -14 -10 -15 2 -5 7 7 15 23 17 35 2
12 9 25 15 29 6 4 8 15 4 24 -5 15 -4 16 8 6 12 -10 14 -8 12 13 -2 17 3 26
15 29 11 3 19 11 19 19 0 11 -2 11 -9 0 -7 -11 -9 -11 -14 1 -4 11 1 14 21 12
24 -3 25 -2 7 11 -16 12 -17 14 -2 14 11 0 14 5 10 17 -4 10 -2 14 5 9 6 -3
14 -1 18 5 4 7 3 9 -3 6 -6 -4 -13 -1 -16 7 -3 8 1 13 11 12 13 -1 17 8 17 41
-1 35 2 40 18 37 15 -3 17 -1 7 11 -10 12 -10 15 1 15 8 0 6 5 -6 13 -14 11
-15 16 -5 22 9 5 11 4 6 -3 -4 -7 -2 -12 4 -12 12 0 9 37 -5 60 -8 13 -7 13 8
1 15 -12 17 -11 17 13 0 15 4 25 8 22 5 -3 9 1 9 10 0 9 -7 13 -21 9 -19 -5
-19 -4 2 6 12 7 22 16 22 21 0 5 -5 6 -11 3 -6 -4 -5 2 2 13 7 12 17 19 21 16
4 -3 5 2 2 10 -3 8 -13 12 -22 9 -14 -4 -14 -3 -3 5 8 6 11 17 8 25 -3 9 1 21
9 28 11 9 12 14 3 19 -8 5 -8 13 -1 27 8 15 8 23 -1 32 -9 10 -8 11 8 6 20 -7
20 -6 1 9 -19 16 -19 16 5 16 17 0 20 3 11 9 -7 4 -15 20 -16 35 -3 19 0 24 9
16 8 -7 12 -5 12 5 0 8 -4 15 -9 15 -5 0 -6 5 -3 10 4 6 11 8 16 5 5 -3 6 1 3
9 -3 9 -11 13 -18 9 -6 -4 -5 1 3 10 7 9 18 14 24 10 6 -3 7 -1 3 5 -4 6 -14
8 -23 5 -15 -6 -15 -5 0 17 15 22 15 26 1 48 -9 14 -12 22 -6 18 5 -3 12 1 16
9 3 8 1 17 -4 20 -6 3 -6 15 0 30 6 16 6 27 -1 31 -8 4 -7 9 1 14 8 5 7 12 -5
24 -19 19 -6 22 15 3 8 -6 6 -2 -4 11 -13 15 -15 22 -6 22 9 0 9 5 -2 22 -14
20 -13 26 4 56 10 18 13 30 7 26 -8 -5 -10 -2 -6 8 3 9 1 20 -5 26 -6 6 -6 12
3 17 8 5 10 4 5 -3 -4 -7 -3 -12 3 -12 5 0 9 9 8 20 -1 15 -6 19 -22 15 -15
-5 -14 -2 5 9 14 9 19 15 11 16 -11 0 -11 3 0 17 12 15 12 16 -5 10 -17 -7
-17 -6 -5 9 17 20 19 56 4 67 -7 4 -7 10 0 15 14 10 17 32 4 32 -8 0 -8 5 1
15 9 10 9 15 1 15 -6 0 -11 5 -11 11 0 5 4 8 8 5 4 -2 8 6 8 20 0 13 -4 24 -9
24 -5 0 -3 7 4 17 11 13 11 17 2 20 -7 3 -13 9 -13 14 0 6 4 8 8 5 4 -2 8 11
8 30 0 19 -4 34 -8 34 -4 0 -8 5 -8 11 0 5 5 7 10 4 6 -3 10 -2 10 4 0 5 -7
14 -16 19 -15 8 -15 10 0 15 11 5 15 3 10 -5 -4 -7 -3 -8 5 -4 6 4 9 11 6 16
-3 4 -2 10 2 13 5 2 3 2 -4 1 -14 -3 -14 35 0 54 7 9 5 11 -9 6 -18 -7 -18 -6
1 16 11 13 15 20 9 17 -15 -9 -27 20 -12 29 7 4 8 3 4 -4 -4 -7 -2 -12 3 -12
13 0 13 3 5 24 -3 9 -10 13 -15 10 -5 -3 -6 2 -3 11 5 13 9 13 23 3 14 -11 14
-11 4 3 -7 8 -11 25 -8 37 2 12 0 24 -6 27 -5 4 -9 11 -9 16 0 6 4 7 10 4 6
-3 7 1 4 9 -3 9 -11 13 -18 10 -6 -3 -4 1 6 8 12 10 14 18 6 32 -12 21 -1 36
12 16 6 -10 10 -11 10 -3 0 7 -10 18 -22 24 -20 11 -20 13 -5 24 13 9 14 14 4
25 -9 10 -9 14 1 17 10 4 10 8 0 21 -11 13 -11 14 0 8 10 -6 11 -1 6 18 -4 17
-2 26 6 26 7 0 6 6 -4 16 -9 8 -16 20 -16 25 0 13 18 11 23 -3 3 -7 4 -2 3 12
-1 14 -8 36 -16 50 -12 22 -12 24 2 12 13 -11 16 -10 14 5 0 10 -5 22 -11 26
-6 4 -1 7 10 5 11 -2 19 2 18 9 -2 7 4 10 12 7 9 -4 23 0 33 7 15 13 16 12 3
-3 -21 -28 -5 -21 25 10 15 15 22 20 15 10 -9 -13 -9 -18 0 -24 8 -4 9 -3 5 4
-4 7 -2 12 3 12 6 0 11 6 11 14 0 8 5 18 12 22 6 4 8 3 5 -3 -3 -5 0 -10 7
-10 15 0 17 27 2 28 -6 0 -1 4 12 9 12 5 22 16 22 25 0 8 7 15 15 15 9 0 12 6
8 17 -5 12 -3 14 8 8 12 -8 12 -6 0 8 -12 15 -12 17 0 12 18 -7 21 35 5 48 -7
5 -2 7 12 4 12 -3 22 -1 22 4 0 5 -6 9 -12 10 -10 0 -10 2 0 6 6 2 12 9 12 14
0 6 -3 8 -7 6 -5 -3 -8 5 -8 18 0 16 5 21 15 17 8 -3 12 -2 8 3 -4 4 -2 15 5
23 8 10 8 13 1 9 -7 -4 -15 0 -18 9 -3 8 -2 12 4 9 6 -3 10 2 10 12 0 11 6 25
13 32 7 9 7 11 1 8 -7 -4 -15 0 -18 9 -3 8 -2 12 4 9 6 -3 7 1 4 9 -4 10 -1
16 7 16 11 0 11 2 -1 10 -8 5 -11 12 -8 16 4 4 3 15 -2 25 -7 13 -6 18 4 21
12 3 12 6 -1 23 l-16 20 7 -20 c6 -17 5 -18 -6 -7 -11 11 -9 16 7 29 15 12 16
14 3 10 -14 -5 -16 0 -15 33 2 32 -1 37 -15 35 -10 -2 -18 0 -18 6 0 5 8 9 17
9 15 0 14 2 -3 16 -17 14 -17 15 -1 10 11 -3 16 -2 12 4 -3 6 -14 10 -23 10
-15 0 -15 2 -2 10 12 8 10 10 -10 11 -23 0 -23 1 -5 9 19 8 19 9 1 9 -15 1
-16 4 -6 16 11 13 10 14 -5 8 -15 -5 -17 -3 -12 11 5 14 3 17 -8 12 -10 -4
-15 1 -16 17 -1 17 -2 18 -6 5 -2 -10 -8 -18 -13 -18 -5 0 -7 6 -4 13 2 7 -5
24 -17 38 -15 16 -20 18 -16 7 4 -10 2 -18 -3 -18 -6 0 -10 7 -10 15 0 8 -5
15 -11 15 -5 0 -7 4 -4 10 3 5 0 7 -8 4 -8 -3 -21 2 -30 10 -9 9 -20 16 -26
16 -5 0 -12 4 -15 9 -4 5 4 7 16 4 18 -4 20 -3 8 6 -13 9 -13 14 -2 32 8 11 9
18 4 15 -5 -3 -9 6 -9 19 0 14 5 25 11 25 6 0 5 4 -3 9 -9 6 -10 11 -2 15 14
9 14 26 0 26 -5 0 -7 -4 -4 -10 10 -16 -1 -11 -16 7 -8 9 -9 14 -3 10 7 -4 18
1 25 10 11 13 11 17 1 21 -10 3 -10 7 0 20 10 12 10 14 1 8 -8 -4 -13 -1 -13
9 0 9 5 13 10 10 6 -3 10 -1 10 4 0 6 -4 11 -10 11 -5 0 -10 9 -10 20 0 14 5
18 18 14 16 -5 16 -5 0 6 -19 11 -26 36 -8 25 6 -3 10 -1 10 4 0 6 -6 11 -12
11 -9 0 -8 4 2 10 10 6 11 10 3 10 -13 0 -13 26 0 47 4 6 2 15 -4 19 -8 5 -9
3 -4 -7 5 -8 4 -10 0 -6 -14 12 -14 36 -1 31 6 -2 12 5 13 16 1 11 -2 18 -6
16 -9 -6 -7 51 2 60 12 12 8 26 -5 18 -9 -5 -9 -2 1 9 7 9 9 17 4 17 -5 0 -9
10 -10 21 -2 21 -1 21 13 3 14 -18 14 -18 7 1 -3 11 -11 26 -16 33 -7 9 -6 17
1 24 16 16 15 31 0 22 -10 -5 -10 -4 -1 6 9 9 9 17 3 25 -11 13 -3 48 9 40 4
-2 6 6 5 18 -1 12 -3 22 -4 22 -1 0 -2 21 -3 48 -1 26 2 47 8 47 6 0 3 5 -5
10 -13 9 -13 10 0 10 13 0 13 1 0 10 -11 7 -11 10 -2 10 10 0 10 5 2 20 -8 15
-8 20 2 20 9 0 9 3 -2 10 -13 9 -13 10 0 10 13 0 13 1 0 10 -11 7 -11 10 -2
10 7 0 10 5 7 10 -4 6 -11 8 -16 5 -5 -4 -9 -1 -9 4 0 6 7 11 15 11 12 0 14 4
6 17 -6 12 -5 21 7 31 16 13 16 13 0 8 -10 -3 -20 0 -24 6 -4 7 -3 8 4 4 8 -5
12 0 12 13 0 12 6 21 13 21 9 0 8 3 -2 9 -8 6 -10 14 -5 22 11 19 14 40 4 34
-4 -3 -11 2 -14 11 -3 8 -2 12 4 9 6 -3 10 -1 10 4 0 6 -6 11 -12 11 -9 0 -8
4 2 10 13 9 8 14 -12 11 -4 0 0 11 7 26 9 17 11 32 5 43 -6 11 -4 24 6 38 10
15 11 23 3 28 -8 4 -9 3 -5 -4 5 -8 1 -10 -9 -5 -9 3 -13 9 -8 12 10 7 33 48
33 58 0 5 -4 2 -9 -5 -7 -11 -9 -11 -14 2 -4 11 -1 16 11 17 11 1 8 4 -8 9
-16 5 -19 8 -8 9 9 1 20 5 23 11 3 5 0 8 -7 5 -9 -4 -13 6 -13 37 0 32 -4 42
-14 40 -11 -2 -12 0 -3 10 6 8 8 25 5 38 -4 16 -3 21 5 16 7 -4 12 -2 12 3 0
6 -8 11 -17 11 -15 0 -14 2 3 16 12 10 13 14 4 11 -10 -3 -16 3 -17 17 -1 11
-4 37 -6 56 -3 19 0 41 6 49 10 12 9 14 -3 9 -11 -4 -15 1 -15 17 0 13 5 21
10 18 6 -3 4 0 -2 8 -7 7 -13 17 -13 22 0 4 6 5 13 2 6 -4 4 0 -6 8 -11 9 -14
18 -8 22 7 4 7 12 -1 25 -7 10 -15 17 -18 15 -4 -2 -7 2 -7 10 0 8 4 15 9 15
4 0 8 5 8 11 0 5 -5 7 -12 3 -8 -5 -9 -2 -5 9 3 9 1 19 -5 23 -6 4 -8 3 -4 -4
3 -6 2 -13 -3 -16 -12 -8 -8 37 4 46 6 5 3 8 -7 8 -12 0 -15 5 -11 17 5 12 3
14 -7 8 -10 -6 -12 -4 -7 8 3 9 -1 18 -10 21 -9 4 -13 9 -10 13 4 3 1 13 -6
21 -9 13 -9 14 0 8 9 -5 11 -2 7 9 -5 11 -10 13 -19 5 -9 -7 -11 -2 -10 20 1
22 -4 31 -18 36 -16 5 -17 8 -6 15 12 7 12 9 0 9 -8 0 -11 6 -7 16 5 13 4 14
-7 6 -10 -9 -13 -5 -11 18 1 17 -2 27 -7 24 -5 -3 -6 -10 -3 -16 4 -7 2 -8 -4
-4 -6 4 -9 13 -6 21 6 14 -29 39 -40 28 -3 -3 -6 -1 -6 6 0 8 7 11 18 7 16 -6
16 -5 0 7 -10 8 -15 17 -11 21 4 4 -1 4 -12 0 -18 -7 -18 -6 -7 9 12 14 11 16
-7 12 -14 -2 -21 1 -19 8 3 15 -46 67 -62 67 -6 0 -8 -5 -4 -12 4 -7 3 -8 -5
-4 -9 6 -9 11 -1 21 13 16 5 35 -13 35 -7 0 -6 -4 3 -10 10 -7 11 -10 2 -10
-7 0 -17 11 -22 24 -10 28 -45 50 -62 40 -7 -4 -8 -3 -4 4 4 7 2 12 -4 12 -6
0 -8 5 -4 13 5 7 2 7 -10 -2 -9 -8 -16 -10 -15 -5 1 5 1 16 0 24 -1 11 -4 11
-13 2 -7 -7 -17 -12 -22 -12 -6 0 -4 5 4 10 10 6 11 10 3 10 -7 0 -13 7 -13
16 0 12 -3 14 -13 6 -8 -7 -18 -6 -31 4 -11 8 -15 14 -10 14 6 0 11 7 11 15 0
8 -5 11 -10 8 -6 -4 -8 3 -4 16 3 12 -1 27 -8 35 -11 10 -11 16 -2 26 9 10 9
11 0 6 -7 -4 -13 -2 -13 3 0 6 6 11 13 12 10 0 10 2 0 6 -7 2 -13 9 -13 14 0
6 4 8 9 4 5 -3 13 0 17 6 4 7 3 9 -4 5 -16 -10 -27 15 -11 26 11 8 10 9 -3 4
-10 -3 -20 0 -24 6 -4 6 -3 8 4 4 7 -4 10 16 8 63 -1 39 1 68 6 65 4 -3 8 -1
8 5 0 5 -5 13 -11 16 -6 5 -4 12 8 21 16 12 16 13 1 14 -9 0 -20 5 -23 11 -4
6 0 9 10 7 10 -2 20 3 23 11 3 8 0 11 -7 7 -6 -4 -11 -2 -11 3 0 6 5 11 11 11
6 0 3 7 -6 16 -15 15 -15 18 2 37 10 11 12 17 6 13 -7 -4 -13 -2 -13 3 0 6 5
11 11 11 6 0 3 7 -5 16 -17 17 -12 39 6 28 7 -4 8 -2 4 4 -4 6 -12 9 -20 6 -7
-3 -13 2 -13 10 0 8 5 12 11 9 12 -7 -13 28 -27 38 -11 8 -16 69 -5 63 4 -3 8
1 9 8 0 10 2 10 6 0 2 -6 9 -10 14 -7z m-3131 -155 c0 -5 -5 -10 -11 -10 -5 0
-7 5 -4 10 3 6 8 10 11 10 2 0 4 -4 4 -10z m2684 -232 c-6 -21 -6 -22 12 -8
17 14 18 14 5 -2 -10 -14 -18 -15 -32 -7 -10 5 -19 12 -19 15 0 3 5 2 10 -1 6
-3 13 1 16 9 9 25 16 19 8 -6z m20 -40 c-6 -9 -44 -6 -44 3 0 4 11 6 24 5 13
0 22 -4 20 -8z m-4 -29 c0 -4 -7 -6 -16 -2 -14 5 -15 3 -4 -16 6 -13 9 -25 6
-29 -3 -3 -6 0 -6 8 0 10 -3 10 -17 -1 -15 -11 -16 -11 -6 0 14 16 6 43 -11
35 -6 -3 -3 1 7 10 19 14 47 12 47 -5z m3505 1 c3 -6 -1 -7 -9 -4 -18 7 -21
14 -7 14 6 0 13 -4 16 -10z m-2548 -125 c0 -8 -4 -12 -9 -9 -5 3 -6 10 -3 15
9 13 12 11 12 -6z m3 -32 c0 -5 -5 -15 -10 -23 -7 -12 -9 -10 -7 8 1 19 17 33
17 15z m-4226 -325 c-3 -5 -9 -6 -14 -3 -5 3 -11 1 -15 -5 -3 -5 -11 -10 -18
-10 -6 0 -3 6 7 13 21 15 48 18 40 5z m-202 -195 c-6 -2 -9 -10 -6 -15 4 -7 2
-8 -5 -4 -13 9 -5 26 12 25 9 0 8 -2 -1 -6z m-212 -461 c0 -13 -12 -22 -22
-16 -10 6 -1 24 13 24 5 0 9 -4 9 -8z m5086 -87 c-8 -8 -18 -15 -22 -15 -3 0
-1 7 6 15 7 8 17 15 22 15 5 0 3 -7 -6 -15z m2561 -40 c0 -8 -4 -12 -9 -9 -4
3 -8 9 -8 15 0 5 4 9 8 9 5 0 9 -7 9 -15z m13 -34 c0 -6 -4 -12 -8 -15 -5 -3
-9 1 -9 9 0 8 4 15 9 15 4 0 8 -4 8 -9z m-2555 -21 c3 -6 -1 -7 -9 -4 -18 7
-21 14 -7 14 6 0 13 -4 16 -10z m-360 -700 c3 -6 -1 -7 -9 -4 -18 7 -21 14 -7
14 6 0 13 -4 16 -10z m-4825 -400 c0 -5 -5 -10 -11 -10 -5 0 -7 5 -4 10 3 6 8
10 11 10 2 0 4 -4 4 -10z m8137 -295 c0 -8 -4 -12 -9 -9 -5 3 -6 10 -3 15 9
13 12 11 12 -6z m8 -485 c3 -5 2 -10 -4 -10 -5 0 -13 5 -16 10 -3 6 -2 10 4
10 5 0 13 -4 16 -10z m-2450 -969 c3 -5 2 -12 -3 -15 -5 -3 -9 1 -9 9 0 17 3
19 12 6z m-5745 -111 c0 -5 -5 -10 -11 -10 -5 0 -7 5 -4 10 3 6 8 10 11 10 2
0 4 -4 4 -10z m8205 -360 c3 -5 1 -10 -4 -10 -6 0 -11 5 -11 10 0 6 2 10 4 10
3 0 8 -4 11 -10z m1 -85 c-1 -8 -5 -17 -8 -21 -5 -4 -4 16 1 34 3 9 9 -1 7
-13z m-8168 -1100 c-3 -3 -9 2 -12 12 -6 14 -5 15 5 6 7 -7 10 -15 7 -18z
m4679 -80 c0 -8 -4 -12 -9 -9 -5 3 -6 10 -3 15 9 13 12 11 12 -6z m3258 -34
c3 -5 2 -12 -3 -15 -5 -3 -9 1 -9 9 0 17 3 19 12 6z m-3500 -372 c-4 -5 -12
-9 -18 -8 -9 0 -8 2 1 6 6 2 9 10 6 15 -4 7 -2 8 5 4 6 -4 9 -12 6 -17z m3350
-89 c3 -5 1 -10 -4 -10 -6 0 -11 5 -11 10 0 6 2 10 4 10 3 0 8 -4 11 -10z
m-6650 -330 c-3 -5 -1 -10 4 -10 6 0 11 5 11 10 0 6 5 10 11 10 5 0 7 -4 4
-10 -3 -5 3 -10 14 -10 10 0 22 6 24 13 3 7 6 4 6 -7 1 -11 6 -16 15 -13 13 5
15 -25 5 -60 -2 -6 5 -19 16 -28 20 -16 20 -16 -1 -6 -23 11 -49 9 -61 -4 -4
-4 -3 -5 4 -1 6 3 14 2 17 -3 4 -5 -7 -7 -25 -4 -24 3 -29 2 -23 -9 6 -10 4
-10 -9 1 -10 7 -16 21 -15 30 2 10 -5 17 -19 19 -18 3 -21 9 -18 35 2 18 4 33
4 35 1 1 11 -3 24 -9 19 -11 20 -10 10 3 -7 8 -10 18 -6 21 10 10 15 8 8 -3z
m-585 -4 c0 -3 -4 -8 -10 -11 -5 -3 -10 -1 -10 4 0 6 5 11 10 11 6 0 10 -2 10
-4z m2966 -5 c-3 -5 1 -12 10 -15 10 -4 13 -2 9 7 -4 6 0 4 8 -5 8 -10 18 -14
22 -10 5 4 5 1 1 -6 -4 -7 -11 -10 -15 -7 -5 2 -5 -13 -1 -35 4 -23 3 -40 -2
-40 -5 0 -6 -4 -3 -10 3 -5 -1 -10 -10 -10 -9 0 -14 -3 -12 -7 11 -18 -53 -6
-68 12 -8 11 -13 13 -10 5 4 -11 -2 -15 -23 -14 -16 0 -34 4 -40 8 -7 4 -12 2
-12 -4 0 -6 -5 -8 -10 -5 -6 4 -7 12 -4 18 5 8 3 8 -7 0 -16 -15 -33 -17 -24
-3 3 6 1 10 -4 10 -6 0 -11 -4 -11 -10 0 -5 -5 -10 -11 -10 -5 0 -7 5 -4 10 6
10 -7 14 -32 11 -7 -1 -13 3 -13 9 0 6 -6 8 -12 4 -10 -6 -10 -4 0 8 11 14 10
16 -10 12 -13 -2 -17 -2 -10 2 6 3 12 10 12 15 0 6 -4 8 -9 5 -10 -7 -23 19
-14 28 4 3 13 0 21 -7 10 -8 13 -8 9 -1 -4 7 1 15 10 19 10 3 19 1 22 -6 2 -8
6 -8 11 2 10 15 150 19 150 4 0 -5 4 -4 9 4 6 9 10 10 16 2 5 -9 10 -9 21 0 8
6 14 8 14 3 0 -4 5 -3 12 4 14 14 22 16 14 3z m1638 -19 c3 -5 -1 -9 -9 -9 -8
0 -12 4 -9 9 3 4 7 8 9 8 2 0 6 -4 9 -8z m-3894 -20 c0 -5 -7 -17 -15 -28 -14
-18 -14 -17 -4 9 12 27 19 34 19 19z m3887 -47 c0 -8 -4 -12 -9 -9 -5 3 -6 10
-3 15 9 13 12 11 12 -6z m-4020 -1 c-3 -3 -12 -4 -19 -1 -8 3 -5 6 6 6 11 1
17 -2 13 -5z m-537 -8 c0 -2 -7 -7 -16 -10 -8 -3 -12 -2 -9 4 6 10 25 14 25 6z
m4500 -62 c0 -8 -5 -12 -10 -9 -6 4 -8 11 -5 16 9 14 15 11 15 -7z m2425 -284
c3 -6 -1 -7 -9 -4 -18 7 -21 14 -7 14 6 0 13 -4 16 -10z m-3500 -270 c-3 -5
-12 -10 -18 -10 -7 0 -6 4 3 10 19 12 23 12 15 0z m3255 -144 c0 -2 -7 -7 -16
-10 -8 -3 -12 -2 -9 4 6 10 25 14 25 6z m-3120 -127 c0 -5 5 -7 12 -3 7 5 8 3
3 -5 -5 -9 -11 -9 -17 -3 -6 6 -18 8 -27 5 -14 -4 -14 -3 -1 6 19 14 30 14 30
0z m-2110 -539 c0 -5 -2 -10 -4 -10 -3 0 -8 5 -11 10 -3 6 -1 10 4 10 6 0 11
-4 11 -10z m4520 -166 c0 -8 -19 -13 -24 -6 -3 5 1 9 9 9 8 0 15 -2 15 -3z
m-3640 -247 c0 -2 -8 -3 -18 -3 -10 0 -19 6 -19 13 0 8 6 9 19 2 10 -5 18 -11
18 -12z m637 -32 c0 -8 -4 -12 -9 -9 -5 3 -6 10 -3 15 9 13 12 11 12 -6z m433
-9 c0 -3 -4 -8 -10 -11 -5 -3 -10 -1 -10 4 0 6 5 11 10 11 6 0 10 -2 10 -4z
m1320 -66 c0 -5 -2 -10 -4 -10 -3 0 -8 5 -11 10 -3 6 -1 10 4 10 6 0 11 -4 11
-10z m72 -8 c12 -15 11 -16 -4 -4 -9 8 -22 11 -27 8 -5 -4 -12 -3 -15 2 -10
16 33 10 46 -6z"/>
<path d="M5795 9661 c-3 -5 -2 -12 3 -15 5 -3 9 1 9 9 0 17 -3 19 -12 6z"/>
<path d="M5875 9000 c3 -5 8 -10 11 -10 2 0 4 5 4 10 0 6 -5 10 -11 10 -5 0
-7 -4 -4 -10z"/>
<path d="M6356 8918 c3 -5 10 -6 15 -3 13 9 11 12 -6 12 -8 0 -12 -4 -9 -9z"/>
<path d="M6420 8799 c0 -5 5 -7 10 -4 6 3 10 8 10 11 0 2 -4 4 -10 4 -5 0 -10
-5 -10 -11z"/>
<path d="M6450 8120 c-9 -6 -10 -10 -3 -10 6 0 15 5 18 10 8 12 4 12 -15 0z"/>
<path d="M6465 7950 c-3 -6 1 -7 9 -4 18 7 21 14 7 14 -6 0 -13 -4 -16 -10z"/>
<path d="M6460 7080 c0 -5 5 -10 11 -10 5 0 7 5 4 10 -3 6 -8 10 -11 10 -2 0
-4 -4 -4 -10z"/>
<path d="M6460 7000 c0 -5 5 -10 11 -10 5 0 7 5 4 10 -3 6 -8 10 -11 10 -2 0
-4 -4 -4 -10z"/>
<path d="M6468 6723 c7 -3 16 -2 19 1 4 3 -2 6 -13 5 -11 0 -14 -3 -6 -6z"/>
<path d="M7080 6340 c0 -5 5 -10 11 -10 5 0 7 5 4 10 -3 6 -8 10 -11 10 -2 0
-4 -4 -4 -10z"/>
<path d="M7287 4979 c7 -7 15 -10 18 -7 3 3 -2 9 -12 12 -14 6 -15 5 -6 -5z"/>
<path d="M7319 4693 c-13 -16 -12 -17 4 -4 16 13 21 21 13 21 -2 0 -10 -8 -17
-17z"/>
<path d="M6405 4240 c-3 -5 1 -10 10 -10 9 0 13 5 10 10 -3 6 -8 10 -10 10 -2
0 -7 -4 -10 -10z"/>
<path d="M6375 3680 c-3 -6 1 -7 9 -4 18 7 21 14 7 14 -6 0 -13 -4 -16 -10z"/>
<path d="M6960 3100 c-9 -6 -10 -10 -3 -10 6 0 15 5 18 10 8 12 4 12 -15 0z"/>
<path d="M5712 2540 c0 -14 2 -19 5 -12 2 6 2 18 0 25 -3 6 -5 1 -5 -13z"/>
<path d="M6546 2182 c-3 -5 1 -9 9 -9 8 0 12 4 9 9 -3 4 -7 8 -9 8 -2 0 -6 -4
-9 -8z"/>
<path d="M5590 1861 c0 -6 4 -13 10 -16 6 -3 7 1 4 9 -7 18 -14 21 -14 7z"/>
<path d="M2723 2455 c0 -8 4 -12 9 -9 5 3 6 10 3 15 -9 13 -12 11 -12 -6z"/>
<path d="M4915 2480 c-3 -5 -1 -10 4 -10 6 0 11 5 11 10 0 6 -2 10 -4 10 -3 0
-8 -4 -11 -10z"/>
<path d="M4950 2482 c0 -5 7 -9 15 -9 8 0 12 4 9 9 -3 4 -9 8 -15 8 -5 0 -9
-4 -9 -8z"/>
<path d="M5090 2370 c0 -5 5 -10 11 -10 5 0 7 5 4 10 -3 6 -8 10 -11 10 -2 0
-4 -4 -4 -10z"/>
<path d="M7570 10671 c0 -6 4 -12 8 -15 5 -3 9 1 9 9 0 8 -4 15 -9 15 -4 0 -8
-4 -8 -9z"/>
<path d="M4950 10639 c0 -5 5 -7 10 -4 6 3 10 8 10 11 0 2 -4 4 -10 4 -5 0
-10 -5 -10 -11z"/>
<path d="M4090 10520 c-8 -5 -12 -12 -9 -15 4 -3 12 1 19 10 14 17 11 19 -10
5z"/>
<path d="M3940 10481 c0 -6 4 -13 10 -16 6 -3 7 1 4 9 -7 18 -14 21 -14 7z"/>
<path d="M8205 10219 c-4 -6 -5 -12 -2 -15 2 -3 7 2 10 11 7 17 1 20 -8 4z"/>
<path d="M3435 10069 c-11 -17 1 -21 15 -4 8 9 8 15 2 15 -6 0 -14 -5 -17 -11z"/>
<path d="M3163 9855 c0 -8 4 -12 9 -9 5 3 6 10 3 15 -9 13 -12 11 -12 -6z"/>
<path d="M3026 9718 c3 -4 9 -8 15 -8 5 0 9 4 9 8 0 5 -7 9 -15 9 -8 0 -12 -4
-9 -9z"/>
<path d="M2925 9690 c-3 -6 1 -7 9 -4 18 7 21 14 7 14 -6 0 -13 -4 -16 -10z"/>
<path d="M8700 9556 c0 -2 7 -7 16 -10 8 -3 12 -2 9 4 -6 10 -25 14 -25 6z"/>
<path d="M2268 8993 c7 -3 16 -2 19 1 4 3 -2 6 -13 5 -11 0 -14 -3 -6 -6z"/>
<path d="M9340 8020 c0 -6 7 -10 15 -10 8 0 15 2 15 4 0 2 -7 6 -15 10 -8 3
-15 1 -15 -4z"/>
<path d="M9376 7902 c-2 -4 -1 -14 4 -22 7 -11 9 -9 7 8 -1 24 -3 26 -11 14z"/>
<path d="M1610 7459 c0 -5 5 -7 10 -4 6 3 10 8 10 11 0 2 -4 4 -10 4 -5 0 -10
-5 -10 -11z"/>
<path d="M1606 6953 c-6 -14 -5 -15 5 -6 7 7 10 15 7 18 -3 3 -9 -2 -12 -12z"/>
<path d="M1605 6920 c3 -5 8 -10 11 -10 2 0 4 5 4 10 0 6 -5 10 -11 10 -5 0
-7 -4 -4 -10z"/>
<path d="M9793 6275 c0 -8 4 -12 9 -9 5 3 6 10 3 15 -9 13 -12 11 -12 -6z"/>
<path d="M1580 6239 c0 -5 5 -7 10 -4 6 3 10 8 10 11 0 2 -4 4 -10 4 -5 0 -10
-5 -10 -11z"/>
<path d="M1583 6205 c0 -8 4 -12 9 -9 5 3 6 10 3 15 -9 13 -12 11 -12 -6z"/>
<path d="M9790 6199 c0 -5 5 -7 10 -4 6 3 10 8 10 11 0 2 -4 4 -10 4 -5 0 -10
-5 -10 -11z"/>
<path d="M1581 6038 c5 -10 11 -18 12 -18 2 0 3 8 3 18 0 10 -6 19 -13 19 -8
0 -9 -6 -2 -19z"/>
<path d="M1575 5909 c-4 -6 -5 -12 -2 -15 2 -3 7 2 10 11 7 17 1 20 -8 4z"/>
<path d="M9816 4941 c-3 -5 1 -11 9 -14 9 -4 12 -1 8 9 -6 16 -10 17 -17 5z"/>
<path d="M9788 4563 c7 -3 16 -2 19 1 4 3 -2 6 -13 5 -11 0 -14 -3 -6 -6z"/>
<path d="M1543 4543 c4 -3 1 -13 -6 -22 -11 -14 -10 -14 5 -2 16 12 16 31 1
31 -4 0 -3 -3 0 -7z"/>
<path d="M9695 3900 c-3 -5 -1 -10 4 -10 6 0 11 5 11 10 0 6 -2 10 -4 10 -3 0
-8 -4 -11 -10z"/>
<path d="M1556 3610 c5 -8 9 -25 8 -38 -1 -12 1 -20 4 -17 12 12 8 46 -7 58
-13 10 -14 10 -5 -3z"/>
<path d="M1633 3287 c0 -8 6 -14 14 -14 9 0 10 4 2 14 -6 7 -12 13 -14 13 -1
0 -2 -6 -2 -13z"/>
<path d="M9375 2780 c-3 -5 -2 -10 4 -10 5 0 13 5 16 10 3 6 2 10 -4 10 -5 0
-13 -4 -16 -10z"/>
<path d="M9376 2618 c3 -5 10 -6 15 -3 13 9 11 12 -6 12 -8 0 -12 -4 -9 -9z"/>
<path d="M2364 2089 c-4 -7 -3 -9 4 -5 6 3 15 -2 21 -11 6 -10 11 -13 11 -7 0
20 -27 37 -36 23z"/>
<path d="M2744 1859 c-4 -7 -3 -9 4 -5 5 3 13 0 15 -6 4 -9 6 -10 6 -1 1 17
-16 25 -25 12z"/>
<path d="M8325 990 c-3 -5 -1 -10 4 -10 6 0 11 5 11 10 0 6 -2 10 -4 10 -3 0
-8 -4 -11 -10z"/>
<path d="M3910 796 c0 -2 7 -7 16 -10 8 -3 12 -2 9 4 -6 10 -25 14 -25 6z"/>
<path d="M4070 690 c0 -5 5 -10 11 -10 5 0 7 5 4 10 -3 6 -8 10 -11 10 -2 0
-4 -4 -4 -10z"/>
<path d="M4255 620 c-3 -5 -1 -10 4 -10 6 0 11 5 11 10 0 6 -2 10 -4 10 -3 0
-8 -4 -11 -10z"/>
<path d="M4410 600 c0 -5 5 -10 11 -10 5 0 7 5 4 10 -3 6 -8 10 -11 10 -2 0
-4 -4 -4 -10z"/>
<path d="M4586 547 c3 -10 9 -15 12 -12 3 3 0 11 -7 18 -10 9 -11 8 -5 -6z"/>
<path d="M5116 518 c3 -5 10 -6 15 -3 13 9 11 12 -6 12 -8 0 -12 -4 -9 -9z"/>
<path d="M5470 499 c0 -5 5 -7 10 -4 6 3 10 8 10 11 0 2 -4 4 -10 4 -5 0 -10
-5 -10 -11z"/>
<path d="M5876 502 c-3 -5 1 -9 9 -9 8 0 12 4 9 9 -3 4 -7 8 -9 8 -2 0 -6 -4
-9 -8z"/>
<path d="M5990 500 c0 -5 5 -10 11 -10 5 0 7 5 4 10 -3 6 -8 10 -11 10 -2 0
-4 -4 -4 -10z"/>
</g>
</svg>
